<svg xmlns="http://www.w3.org/2000/svg" xmlns:xlink="http://www.w3.org/1999/xlink" width="2000" zoomAndPan="magnify" viewBox="0 0 1500 1499.999933" height="2000" preserveAspectRatio="xMidYMid meet" version="1.0"><defs><clipPath id="d568daf883"><path d="M 28 244 L 917 244 L 917 1235 L 28 1235 Z M 28 244 " clip-rule="nonzero"/></clipPath><clipPath id="4127112ccd"><path d="M 0.00390625 1068.769531 L 713.183594 215.765625 L 945.738281 410.203125 L 232.558594 1263.203125 Z M 0.00390625 1068.769531 " clip-rule="nonzero"/></clipPath><clipPath id="85a8f0033a"><path d="M 45.222656 1014.683594 L 667.609375 270.277344 C 692.582031 240.40625 737.042969 236.4375 766.914062 261.414062 L 891.296875 365.40625 C 921.167969 390.382812 925.136719 434.84375 900.164062 464.714844 L 277.777344 1209.117188 C 252.804688 1238.988281 208.34375 1242.957031 178.472656 1217.984375 L 54.089844 1113.988281 C 24.21875 1089.015625 20.25 1044.554688 45.222656 1014.683594 Z M 45.222656 1014.683594 " clip-rule="nonzero"/></clipPath><clipPath id="d11c4a9d72"><path d="M 0 0 L 889 0 L 889 991 L 0 991 Z M 0 0 " clip-rule="nonzero"/></clipPath><clipPath id="3e118c57ce"><path d="M -27.996094 824.769531 L 685.183594 -28.234375 L 917.738281 166.203125 L 204.558594 1019.203125 Z M -27.996094 824.769531 " clip-rule="nonzero"/></clipPath><clipPath id="fe78d1f682"><path d="M 17.222656 770.683594 L 639.609375 26.277344 C 664.582031 -3.59375 709.042969 -7.5625 738.914062 17.414062 L 863.296875 121.40625 C 893.167969 146.382812 897.136719 190.84375 872.164062 220.714844 L 249.777344 965.117188 C 224.804688 994.988281 180.34375 998.957031 150.472656 973.984375 L 26.089844 869.988281 C -3.78125 845.015625 -7.75 800.554688 17.222656 770.683594 Z M 17.222656 770.683594 " clip-rule="nonzero"/></clipPath><clipPath id="9a56fce072"><rect x="0" width="889" y="0" height="991"/></clipPath><clipPath id="7a9b90f013"><path d="M 1056 819 L 1472 819 L 1472 1235 L 1056 1235 Z M 1056 819 " clip-rule="nonzero"/></clipPath><clipPath id="e2d550eb23"><path d="M 1027.410156 1043.992188 L 1246.375 790.65625 L 1500.703125 1010.476562 L 1281.738281 1263.816406 Z M 1027.410156 1043.992188 " clip-rule="nonzero"/></clipPath><clipPath id="73e1a81c04"><path d="M 1073.511719 990.65625 L 1200.277344 843.992188 C 1225.738281 814.535156 1270.257812 811.296875 1299.714844 836.757812 L 1446.664062 963.769531 C 1476.121094 989.230469 1479.359375 1033.75 1453.898438 1063.207031 L 1327.136719 1209.871094 C 1301.675781 1239.328125 1257.152344 1242.566406 1227.695312 1217.105469 L 1080.746094 1090.09375 C 1051.289062 1064.632812 1048.050781 1020.113281 1073.511719 990.65625 Z M 1073.511719 990.65625 " clip-rule="nonzero"/></clipPath><clipPath id="5c7111efd0"><path d="M 0 0 L 416 0 L 416 416 L 0 416 Z M 0 0 " clip-rule="nonzero"/></clipPath><clipPath id="95f3c8f377"><path d="M -28.589844 224.992188 L 190.375 -28.34375 L 444.703125 191.476562 L 225.738281 444.816406 Z M -28.589844 224.992188 " clip-rule="nonzero"/></clipPath><clipPath id="8dd3b13553"><path d="M 17.511719 171.65625 L 144.277344 24.992188 C 169.738281 -4.464844 214.257812 -7.703125 243.714844 17.757812 L 390.664062 144.769531 C 420.121094 170.230469 423.359375 214.75 397.898438 244.207031 L 271.136719 390.871094 C 245.675781 420.328125 201.152344 423.566406 171.695312 398.105469 L 24.746094 271.09375 C -4.710938 245.632812 -7.949219 201.113281 17.511719 171.65625 Z M 17.511719 171.65625 " clip-rule="nonzero"/></clipPath><clipPath id="f1ffad6ee1"><rect x="0" width="416" y="0" height="416"/></clipPath><clipPath id="5c2165b76b"><path d="M 526 255 L 1415 255 L 1415 1245 L 526 1245 Z M 526 255 " clip-rule="nonzero"/></clipPath><clipPath id="a9fde7ab8b"><path d="M 498.066406 1079.066406 L 1211.246094 226.0625 L 1443.800781 420.496094 L 730.621094 1273.5 Z M 498.066406 1079.066406 " clip-rule="nonzero"/></clipPath><clipPath id="af523f145d"><path d="M 543.285156 1024.980469 L 1165.671875 280.574219 C 1190.644531 250.703125 1235.105469 246.734375 1264.976562 271.710938 L 1389.359375 375.703125 C 1419.230469 400.675781 1423.199219 445.140625 1398.226562 475.011719 L 775.839844 1219.414062 C 750.867188 1249.285156 706.40625 1253.253906 676.535156 1228.28125 L 552.152344 1124.285156 C 522.28125 1099.3125 518.3125 1054.851562 543.285156 1024.980469 Z M 543.285156 1024.980469 " clip-rule="nonzero"/></clipPath><clipPath id="0647c84235"><path d="M 0 0 L 889 0 L 889 990 L 0 990 Z M 0 0 " clip-rule="nonzero"/></clipPath><clipPath id="9b527677b9"><path d="M -27.933594 824.066406 L 685.246094 -28.9375 L 917.800781 165.496094 L 204.621094 1018.5 Z M -27.933594 824.066406 " clip-rule="nonzero"/></clipPath><clipPath id="c4ac93a0f0"><path d="M 17.285156 769.980469 L 639.671875 25.574219 C 664.644531 -4.296875 709.105469 -8.265625 738.976562 16.710938 L 863.359375 120.703125 C 893.230469 145.675781 897.199219 190.140625 872.226562 220.011719 L 249.839844 964.414062 C 224.867188 994.285156 180.40625 998.253906 150.535156 973.28125 L 26.152344 869.285156 C -3.71875 844.3125 -7.6875 799.851562 17.285156 769.980469 Z M 17.285156 769.980469 " clip-rule="nonzero"/></clipPath><clipPath id="ca18c27a99"><rect x="0" width="889" y="0" height="990"/></clipPath></defs><g clip-path="url(#d568daf883)"><g clip-path="url(#4127112ccd)"><g clip-path="url(#85a8f0033a)"><g transform="matrix(1, 0, 0, 1, 28, 244)"><g clip-path="url(#9a56fce072)"><g clip-path="url(#d11c4a9d72)"><g clip-path="url(#3e118c57ce)"><g clip-path="url(#fe78d1f682)"><path fill="#fa8029" d="M -27.996094 824.769531 L 685.183594 -28.234375 L 917.738281 166.203125 L 204.558594 1019.203125 Z M -27.996094 824.769531 " fill-opacity="1" fill-rule="nonzero"/></g></g></g></g></g></g></g></g><g clip-path="url(#7a9b90f013)"><g clip-path="url(#e2d550eb23)"><g clip-path="url(#73e1a81c04)"><g transform="matrix(1, 0, 0, 1, 1056, 819)"><g clip-path="url(#f1ffad6ee1)"><g clip-path="url(#5c7111efd0)"><g clip-path="url(#95f3c8f377)"><g clip-path="url(#8dd3b13553)"><path fill="#fa8029" d="M -28.589844 224.992188 L 190.375 -28.34375 L 443.714844 190.621094 L 224.75 443.960938 Z M -28.589844 224.992188 " fill-opacity="1" fill-rule="nonzero"/></g></g></g></g></g></g></g></g><g clip-path="url(#5c2165b76b)"><g clip-path="url(#a9fde7ab8b)"><g clip-path="url(#af523f145d)"><g transform="matrix(1, 0, 0, 1, 526, 255)"><g clip-path="url(#ca18c27a99)"><g clip-path="url(#0647c84235)"><g clip-path="url(#9b527677b9)"><g clip-path="url(#c4ac93a0f0)"><path fill="#fa8029" d="M -27.933594 824.066406 L 685.246094 -28.9375 L 917.800781 165.496094 L 204.621094 1018.5 Z M -27.933594 824.066406 " fill-opacity="1" fill-rule="nonzero"/></g></g></g></g></g></g></g></g></svg>