<svg xmlns="http://www.w3.org/2000/svg" xmlns:xlink="http://www.w3.org/1999/xlink" width="2000" zoomAndPan="magnify" viewBox="0 0 1500 1499.999933" height="2000" preserveAspectRatio="xMidYMid meet" version="1.0"><defs><clipPath id="4031b7ed00"><path d="M 30 246 L 915 246 L 915 1233 L 30 1233 Z M 30 246 " clip-rule="nonzero"/></clipPath><clipPath id="a1816ac919"><path d="M 0.00390625 1068.769531 L 713.183594 215.765625 L 945.738281 410.203125 L 232.558594 1263.203125 Z M 0.00390625 1068.769531 " clip-rule="nonzero"/></clipPath><clipPath id="d06666a08e"><path d="M 48.109375 1011.230469 L 664.722656 273.730469 C 677.480469 258.472656 695.777344 248.902344 715.589844 247.136719 C 735.402344 245.367188 755.105469 251.539062 770.367188 264.300781 L 887.84375 362.519531 C 903.105469 375.277344 912.671875 393.578125 914.441406 413.390625 C 916.207031 433.203125 910.035156 452.90625 897.277344 468.167969 L 280.664062 1205.664062 C 267.90625 1220.925781 249.609375 1230.492188 229.796875 1232.261719 C 209.984375 1234.03125 190.277344 1227.855469 175.019531 1215.097656 L 57.542969 1116.875 C 42.28125 1104.117188 32.714844 1085.820312 30.945312 1066.007812 C 29.175781 1046.195312 35.351562 1026.492188 48.109375 1011.230469 Z M 48.109375 1011.230469 " clip-rule="nonzero"/></clipPath><clipPath id="204cbed95d"><path d="M 0 0 L 885 0 L 885 987 L 0 987 Z M 0 0 " clip-rule="nonzero"/></clipPath><clipPath id="6e60daa60f"><path d="M -29.996094 822.769531 L 683.183594 -30.234375 L 915.738281 164.203125 L 202.558594 1017.203125 Z M -29.996094 822.769531 " clip-rule="nonzero"/></clipPath><clipPath id="ace1181ec8"><path d="M 18.109375 765.230469 L 634.722656 27.730469 C 647.480469 12.472656 665.777344 2.902344 685.589844 1.136719 C 705.402344 -0.632812 725.105469 5.539062 740.367188 18.300781 L 857.84375 116.519531 C 873.105469 129.277344 882.671875 147.578125 884.441406 167.390625 C 886.207031 187.203125 880.035156 206.90625 867.277344 222.167969 L 250.664062 959.664062 C 237.90625 974.925781 219.609375 984.492188 199.796875 986.261719 C 179.984375 988.03125 160.277344 981.855469 145.019531 969.097656 L 27.542969 870.875 C 12.28125 858.117188 2.714844 839.820312 0.945312 820.007812 C -0.824219 800.195312 5.351562 780.492188 18.109375 765.230469 Z M 18.109375 765.230469 " clip-rule="nonzero"/></clipPath><clipPath id="1901d012ce"><rect x="0" width="885" y="0" height="987"/></clipPath><clipPath id="f19a835bc9"><path d="M 1058 821 L 1470 821 L 1470 1233 L 1058 1233 Z M 1058 821 " clip-rule="nonzero"/></clipPath><clipPath id="5c6fbc8c9b"><path d="M 1027.410156 1043.992188 L 1246.375 790.65625 L 1500.703125 1010.476562 L 1281.738281 1263.816406 Z M 1027.410156 1043.992188 " clip-rule="nonzero"/></clipPath><clipPath id="4322db9ae3"><path d="M 1076.453125 987.25 L 1197.332031 847.398438 C 1210.339844 832.347656 1228.792969 823.082031 1248.632812 821.640625 C 1268.46875 820.195312 1288.070312 826.691406 1303.121094 839.699219 L 1443.257812 960.824219 C 1458.308594 973.832031 1467.574219 992.285156 1469.015625 1012.125 C 1470.460938 1031.964844 1463.964844 1051.5625 1450.957031 1066.613281 L 1330.078125 1206.464844 C 1317.070312 1221.515625 1298.617188 1230.78125 1278.78125 1232.222656 C 1258.941406 1233.667969 1239.339844 1227.171875 1224.292969 1214.164062 L 1084.152344 1093.039062 C 1069.101562 1080.03125 1059.835938 1061.578125 1058.394531 1041.738281 C 1056.949219 1021.898438 1063.445312 1002.300781 1076.453125 987.25 Z M 1076.453125 987.25 " clip-rule="nonzero"/></clipPath><clipPath id="09a1836337"><path d="M 0 0 L 412 0 L 412 412 L 0 412 Z M 0 0 " clip-rule="nonzero"/></clipPath><clipPath id="c2111fe57c"><path d="M -30.589844 222.992188 L 188.375 -30.34375 L 442.703125 189.476562 L 223.738281 442.816406 Z M -30.589844 222.992188 " clip-rule="nonzero"/></clipPath><clipPath id="9faaba8f19"><path d="M 18.453125 166.25 L 139.332031 26.398438 C 152.339844 11.347656 170.792969 2.082031 190.632812 0.640625 C 210.46875 -0.804688 230.070312 5.691406 245.121094 18.699219 L 385.257812 139.824219 C 400.308594 152.832031 409.574219 171.285156 411.015625 191.125 C 412.460938 210.964844 405.964844 230.5625 392.957031 245.613281 L 272.078125 385.464844 C 259.070312 400.515625 240.617188 409.78125 220.78125 411.222656 C 200.941406 412.667969 181.339844 406.171875 166.292969 393.164062 L 26.152344 272.039062 C 11.101562 259.03125 1.835938 240.578125 0.394531 220.738281 C -1.050781 200.898438 5.445312 181.300781 18.453125 166.25 Z M 18.453125 166.25 " clip-rule="nonzero"/></clipPath><clipPath id="bd8ab924f6"><rect x="0" width="412" y="0" height="412"/></clipPath><clipPath id="2048875d8e"><path d="M 528 257 L 1413 257 L 1413 1243 L 528 1243 Z M 528 257 " clip-rule="nonzero"/></clipPath><clipPath id="5ba2add7b1"><path d="M 498.066406 1079.066406 L 1211.246094 226.0625 L 1443.800781 420.496094 L 730.621094 1273.5 Z M 498.066406 1079.066406 " clip-rule="nonzero"/></clipPath><clipPath id="08a83ff11b"><path d="M 546.171875 1021.527344 L 1162.785156 284.027344 C 1175.542969 268.765625 1193.839844 259.199219 1213.652344 257.429688 C 1233.464844 255.664062 1253.167969 261.835938 1268.429688 274.597656 L 1385.90625 372.816406 C 1401.167969 385.574219 1410.734375 403.875 1412.503906 423.6875 C 1414.269531 443.5 1408.097656 463.203125 1395.339844 478.460938 L 778.726562 1215.960938 C 765.96875 1231.222656 747.667969 1240.789062 727.855469 1242.558594 C 708.042969 1244.328125 688.339844 1238.152344 673.082031 1225.394531 L 555.605469 1127.171875 C 540.34375 1114.414062 530.777344 1096.117188 529.007812 1076.304688 C 527.238281 1056.492188 533.414062 1036.789062 546.171875 1021.527344 Z M 546.171875 1021.527344 " clip-rule="nonzero"/></clipPath><clipPath id="dc6bd5a43f"><path d="M 0 0 L 885 0 L 885 986 L 0 986 Z M 0 0 " clip-rule="nonzero"/></clipPath><clipPath id="b2f4947dee"><path d="M -29.933594 822.066406 L 683.246094 -30.9375 L 915.800781 163.496094 L 202.621094 1016.5 Z M -29.933594 822.066406 " clip-rule="nonzero"/></clipPath><clipPath id="0ec652f179"><path d="M 18.171875 764.527344 L 634.785156 27.027344 C 647.542969 11.765625 665.839844 2.199219 685.652344 0.429688 C 705.464844 -1.335938 725.167969 4.835938 740.429688 17.597656 L 857.90625 115.816406 C 873.167969 128.574219 882.734375 146.875 884.503906 166.6875 C 886.269531 186.5 880.097656 206.203125 867.339844 221.460938 L 250.726562 958.960938 C 237.96875 974.222656 219.667969 983.789062 199.855469 985.558594 C 180.042969 987.328125 160.339844 981.152344 145.082031 968.394531 L 27.605469 870.171875 C 12.34375 857.414062 2.777344 839.117188 1.007812 819.304688 C -0.761719 799.492188 5.414062 779.789062 18.171875 764.527344 Z M 18.171875 764.527344 " clip-rule="nonzero"/></clipPath><clipPath id="c5ecb32b19"><rect x="0" width="885" y="0" height="986"/></clipPath></defs><g clip-path="url(#4031b7ed00)"><g clip-path="url(#a1816ac919)"><g clip-path="url(#d06666a08e)"><g transform="matrix(1, 0, 0, 1, 30, 246)"><g clip-path="url(#1901d012ce)"><g clip-path="url(#204cbed95d)"><g clip-path="url(#6e60daa60f)"><g clip-path="url(#ace1181ec8)"><path fill="#fa8029" d="M -29.996094 822.769531 L 683.183594 -30.234375 L 915.738281 164.203125 L 202.558594 1017.203125 Z M -29.996094 822.769531 " fill-opacity="1" fill-rule="nonzero"/></g></g></g></g></g></g></g></g><g clip-path="url(#f19a835bc9)"><g clip-path="url(#5c6fbc8c9b)"><g clip-path="url(#4322db9ae3)"><g transform="matrix(1, 0, 0, 1, 1058, 821)"><g clip-path="url(#bd8ab924f6)"><g clip-path="url(#09a1836337)"><g clip-path="url(#c2111fe57c)"><g clip-path="url(#9faaba8f19)"><path fill="#fa8029" d="M -30.589844 222.992188 L 188.375 -30.34375 L 441.714844 188.621094 L 222.75 441.960938 Z M -30.589844 222.992188 " fill-opacity="1" fill-rule="nonzero"/></g></g></g></g></g></g></g></g><g clip-path="url(#2048875d8e)"><g clip-path="url(#5ba2add7b1)"><g clip-path="url(#08a83ff11b)"><g transform="matrix(1, 0, 0, 1, 528, 257)"><g clip-path="url(#c5ecb32b19)"><g clip-path="url(#dc6bd5a43f)"><g clip-path="url(#b2f4947dee)"><g clip-path="url(#0ec652f179)"><path fill="#fa8029" d="M -29.933594 822.066406 L 683.246094 -30.9375 L 915.800781 163.496094 L 202.621094 1016.5 Z M -29.933594 822.066406 " fill-opacity="1" fill-rule="nonzero"/></g></g></g></g></g></g></g></g></svg>