<svg xmlns="http://www.w3.org/2000/svg" xmlns:xlink="http://www.w3.org/1999/xlink" width="2000" zoomAndPan="magnify" viewBox="0 0 1500 1499.999933" height="2000" preserveAspectRatio="xMidYMid meet" version="1.0"><defs><clipPath id="42b185793f"><path d="M 53 136.195312 L 962.472656 136.195312 L 962.472656 558.308594 L 53 558.308594 Z M 53 136.195312 " clip-rule="nonzero"/></clipPath><clipPath id="543743e270"><path d="M 962.472656 347.25 C 962.472656 403.226562 940.234375 456.910156 900.65625 496.492188 C 861.074219 536.074219 807.390625 558.308594 751.414062 558.308594 L 264.519531 558.308594 C 208.542969 558.308594 154.859375 536.074219 115.28125 496.492188 C 75.699219 456.910156 53.464844 403.226562 53.464844 347.25 C 53.464844 291.277344 75.699219 237.59375 115.28125 198.011719 C 154.859375 158.429688 208.542969 136.195312 264.519531 136.195312 L 751.414062 136.195312 C 807.390625 136.195312 861.074219 158.429688 900.65625 198.011719 C 940.234375 237.59375 962.472656 291.277344 962.472656 347.25 Z M 962.472656 347.25 " clip-rule="nonzero"/></clipPath><clipPath id="4191c9b204"><path d="M 0.28125 0.195312 L 909.472656 0.195312 L 909.472656 422.308594 L 0.28125 422.308594 Z M 0.28125 0.195312 " clip-rule="nonzero"/></clipPath><clipPath id="eec7c6ce00"><path d="M 909.472656 211.25 C 909.472656 267.226562 887.234375 320.910156 847.65625 360.492188 C 808.074219 400.074219 754.390625 422.308594 698.414062 422.308594 L 211.519531 422.308594 C 155.542969 422.308594 101.859375 400.074219 62.28125 360.492188 C 22.699219 320.910156 0.464844 267.226562 0.464844 211.25 C 0.464844 155.277344 22.699219 101.59375 62.28125 62.011719 C 101.859375 22.429688 155.542969 0.195312 211.519531 0.195312 L 698.414062 0.195312 C 754.390625 0.195312 808.074219 22.429688 847.65625 62.011719 C 887.234375 101.59375 909.472656 155.277344 909.472656 211.25 Z M 909.472656 211.25 " clip-rule="nonzero"/></clipPath><clipPath id="f3a40aae3d"><rect x="0" width="910" y="0" height="423"/></clipPath><clipPath id="46d34ee328"><path d="M 540.363281 627.988281 L 962.480469 627.988281 L 962.480469 1376 L 540.363281 1376 Z M 540.363281 627.988281 " clip-rule="nonzero"/></clipPath><clipPath id="9b9975951b"><path d="M 751.421875 627.988281 C 807.398438 627.988281 861.082031 650.222656 900.660156 689.804688 C 940.242188 729.386719 962.480469 783.070312 962.480469 839.046875 L 962.480469 1164.199219 C 962.480469 1220.175781 940.242188 1273.859375 900.660156 1313.4375 C 861.082031 1353.019531 807.398438 1375.257812 751.421875 1375.257812 C 695.445312 1375.257812 641.761719 1353.019531 602.179688 1313.4375 C 562.601562 1273.859375 540.363281 1220.175781 540.363281 1164.199219 L 540.363281 839.046875 C 540.363281 783.070312 562.601562 729.386719 602.179688 689.804688 C 641.761719 650.222656 695.445312 627.988281 751.421875 627.988281 Z M 751.421875 627.988281 " clip-rule="nonzero"/></clipPath><clipPath id="18007eb397"><path d="M 0.363281 0.988281 L 422.480469 0.988281 L 422.480469 748 L 0.363281 748 Z M 0.363281 0.988281 " clip-rule="nonzero"/></clipPath><clipPath id="d9b6ebdb42"><path d="M 211.421875 0.988281 C 267.398438 0.988281 321.082031 23.222656 360.660156 62.804688 C 400.242188 102.386719 422.480469 156.070312 422.480469 212.046875 L 422.480469 537.199219 C 422.480469 593.175781 400.242188 646.859375 360.660156 686.4375 C 321.082031 726.019531 267.398438 748.257812 211.421875 748.257812 C 155.445312 748.257812 101.761719 726.019531 62.179688 686.4375 C 22.601562 646.859375 0.363281 593.175781 0.363281 537.199219 L 0.363281 212.046875 C 0.363281 156.070312 22.601562 102.386719 62.179688 62.804688 C 101.761719 23.222656 155.445312 0.988281 211.421875 0.988281 Z M 211.421875 0.988281 " clip-rule="nonzero"/></clipPath><clipPath id="cb4e1879a0"><rect x="0" width="423" y="0" height="749"/></clipPath><clipPath id="f2e00231b7"><path d="M 1016.164062 136.195312 L 1446.523438 136.195312 L 1446.523438 558.308594 L 1016.164062 558.308594 Z M 1016.164062 136.195312 " clip-rule="nonzero"/></clipPath><clipPath id="7ea26e3e13"><path d="M 1446.523438 347.253906 C 1446.523438 403.226562 1424.285156 456.910156 1384.707031 496.492188 C 1345.125 536.074219 1291.441406 558.308594 1235.464844 558.308594 L 1227.578125 558.308594 C 1171.601562 558.308594 1117.917969 536.074219 1078.335938 496.492188 C 1038.753906 456.910156 1016.519531 403.226562 1016.519531 347.253906 C 1016.519531 291.277344 1038.753906 237.59375 1078.335938 198.011719 C 1117.917969 158.429688 1171.601562 136.195312 1227.578125 136.195312 L 1235.464844 136.195312 C 1291.441406 136.195312 1345.125 158.429688 1384.707031 198.011719 C 1424.285156 237.59375 1446.523438 291.277344 1446.523438 347.253906 Z M 1446.523438 347.253906 " clip-rule="nonzero"/></clipPath><clipPath id="ea0fe7b4d8"><path d="M 0.398438 0.195312 L 430.523438 0.195312 L 430.523438 422.308594 L 0.398438 422.308594 Z M 0.398438 0.195312 " clip-rule="nonzero"/></clipPath><clipPath id="77610a21b0"><path d="M 430.523438 211.253906 C 430.523438 267.226562 408.285156 320.910156 368.707031 360.492188 C 329.125 400.074219 275.441406 422.308594 219.464844 422.308594 L 211.578125 422.308594 C 155.601562 422.308594 101.917969 400.074219 62.335938 360.492188 C 22.753906 320.910156 0.519531 267.226562 0.519531 211.253906 C 0.519531 155.277344 22.753906 101.59375 62.335938 62.011719 C 101.917969 22.429688 155.601562 0.195312 211.578125 0.195312 L 219.464844 0.195312 C 275.441406 0.195312 329.125 22.429688 368.707031 62.011719 C 408.285156 101.59375 430.523438 155.277344 430.523438 211.253906 Z M 430.523438 211.253906 " clip-rule="nonzero"/></clipPath><clipPath id="db062deb9e"><rect x="0" width="431" y="0" height="423"/></clipPath></defs><g clip-path="url(#42b185793f)"><g clip-path="url(#543743e270)"><g transform="matrix(1, 0, 0, 1, 53, 136)"><g clip-path="url(#f3a40aae3d)"><g clip-path="url(#4191c9b204)"><g clip-path="url(#eec7c6ce00)"><path fill="#ff7f17" d="M 909.472656 0.195312 L 909.472656 422.308594 L 0.9375 422.308594 L 0.9375 0.195312 Z M 909.472656 0.195312 " fill-opacity="1" fill-rule="nonzero"/></g></g></g></g></g></g><g clip-path="url(#46d34ee328)"><g clip-path="url(#9b9975951b)"><g transform="matrix(1, 0, 0, 1, 540, 627)"><g clip-path="url(#cb4e1879a0)"><g clip-path="url(#18007eb397)"><g clip-path="url(#d9b6ebdb42)"><path fill="#ff7f17" d="M 0.363281 0.988281 L 422.480469 0.988281 L 422.480469 747.933594 L 0.363281 747.933594 Z M 0.363281 0.988281 " fill-opacity="1" fill-rule="nonzero"/></g></g></g></g></g></g><g clip-path="url(#f2e00231b7)"><g clip-path="url(#7ea26e3e13)"><g transform="matrix(1, 0, 0, 1, 1016, 136)"><g clip-path="url(#db062deb9e)"><g clip-path="url(#ea0fe7b4d8)"><g clip-path="url(#77610a21b0)"><path fill="#ff4f17" d="M 430.523438 0.195312 L 430.523438 422.308594 L 0.164062 422.308594 L 0.164062 0.195312 Z M 430.523438 0.195312 " fill-opacity="1" fill-rule="nonzero"/></g></g></g></g></g></g></svg>