<?xml version="1.0" encoding="UTF-8"?>
<svg version="1.1" xmlns="http://www.w3.org/2000/svg" width="500" height="500">
<path d="M0 0 C2.24278903 1.54914293 4.03318953 3.08362057 6 5 C6 5.66 6 6.32 6 7 C6.66 7 7.32 7 8 7 C8 7.66 8 8.32 8 9 C8.66 9 9.32 9 10 9 C10 9.66 10 10.32 10 11 C10.66 11 11.32 11 12 11 C12 11.66 12 12.32 12 13 C12.598125 13.268125 13.19625 13.53625 13.8125 13.8125 C15.99847854 14.99917406 17.41332594 16.09599113 19 18 C19 18.66 19 19.32 19 20 C19.66 20 20.32 20 21 20 C21 20.66 21 21.32 21 22 C21.66 22 22.32 22 23 22 C23 22.66 23 23.32 23 24 C23.66 24 24.32 24 25 24 C25 24.66 25 25.32 25 26 C25.66 26 26.32 26 27 26 C27 26.66 27 27.32 27 28 C27.598125 28.268125 28.19625 28.53625 28.8125 28.8125 C30.99847854 29.99917406 32.41332594 31.09599113 34 33 C34 33.66 34 34.32 34 35 C34.66 35 35.32 35 36 35 C36 35.66 36 36.32 36 37 C36.66 37 37.32 37 38 37 C38 37.66 38 38.32 38 39 C38.66 39 39.32 39 40 39 C40 39.66 40 40.32 40 41 C40.66 41 41.32 41 42 41 C46.14063023 47.66101385 46.76733176 55.23733845 45.25 62.875 C42.89638419 71.6081534 36.3230392 77.83909001 30 84 C28.8553125 85.175625 28.8553125 85.175625 27.6875 86.375 C24.85380504 89.14279507 21.8954835 91.70283199 18.8671875 94.25390625 C16.91740995 95.96808589 16.91740995 95.96808589 15.3828125 98.21484375 C14.92648437 98.80394531 14.47015625 99.39304687 14 100 C13.34 100 12.68 100 12 100 C12 100.66 12 101.32 12 102 C11.34 102 10.68 102 10 102 C9.731875 102.639375 9.46375 103.27875 9.1875 103.9375 C8 106 8 106 5 107 C5 107.66 5 108.32 5 109 C4.34 109 3.68 109 3 109 C2.6596875 109.8353125 2.6596875 109.8353125 2.3125 110.6875 C-0.11420254 114.96311877 -3.43250373 118.13916819 -8 120 C-8 120.66 -8 121.32 -8 122 C-9.49609375 123.4375 -9.49609375 123.4375 -11.4375 125 C-14.15188238 127.14525044 -14.15188238 127.14525044 -16 130 C-16.66 130 -17.32 130 -18 130 C-18.226875 130.556875 -18.45375 131.11375 -18.6875 131.6875 C-20.89002123 135.56813264 -24.07151689 138.27533025 -27.5625 141 C-30.12561732 142.96023318 -30.12561732 142.96023318 -32.1875 145.75 C-32.785625 146.4925 -33.38375 147.235 -34 148 C-34.66 148 -35.32 148 -36 148 C-36 148.66 -36 149.32 -36 150 C-37.49609375 151.4375 -37.49609375 151.4375 -39.4375 153 C-42.15188238 155.14525044 -42.15188238 155.14525044 -44 158 C-44.66 158 -45.32 158 -46 158 C-46.226875 158.556875 -46.45375 159.11375 -46.6875 159.6875 C-49.11420254 163.96311877 -52.43250373 167.13916819 -57 169 C-57 169.66 -57 170.32 -57 171 C-57.66 171 -58.32 171 -59 171 C-59.268125 171.639375 -59.53625 172.27875 -59.8125 172.9375 C-61 175 -61 175 -64 176 C-64 176.66 -64 177.32 -64 178 C-64.66 178 -65.32 178 -66 178 C-66.226875 178.556875 -66.45375 179.11375 -66.6875 179.6875 C-69.11640091 183.96699207 -72.89832121 186.93461104 -76.625 190.0625 C-79.15432068 192.18581259 -81.04776751 194.32852396 -83 197 C-83.66 197 -84.32 197 -85 197 C-85 197.66 -85 198.32 -85 199 C-85.66 199 -86.32 199 -87 199 C-87.268125 199.639375 -87.53625 200.27875 -87.8125 200.9375 C-89 203 -89 203 -92 204 C-92 204.66 -92 205.32 -92 206 C-92.66 206 -93.32 206 -94 206 C-94.226875 206.556875 -94.45375 207.11375 -94.6875 207.6875 C-97.11640091 211.96699207 -100.89832121 214.93461104 -104.625 218.0625 C-107.15432068 220.18581259 -109.04776751 222.32852396 -111 225 C-111.66 225 -112.32 225 -113 225 C-113 225.66 -113 226.32 -113 227 C-113.66 227 -114.32 227 -115 227 C-115.268125 227.639375 -115.53625 228.27875 -115.8125 228.9375 C-117 231 -117 231 -120 232 C-120.68486725 233.32407669 -121.34870203 234.65909241 -122 236 C-124 238.25 -124 238.25 -126 240 C-126.66 240 -127.32 240 -128 240 C-128.268125 240.639375 -128.53625 241.27875 -128.8125 241.9375 C-130 244 -130 244 -133 245 C-133.33 245.99 -133.66 246.98 -134 248 C-134.66 248 -135.32 248 -136 248 C-136.268125 248.598125 -136.53625 249.19625 -136.8125 249.8125 C-137.99917406 251.99847854 -139.09599113 253.41332594 -141 255 C-141.66 255 -142.32 255 -143 255 C-143.268125 255.639375 -143.53625 256.27875 -143.8125 256.9375 C-145 259 -145 259 -148 260 C-148.68486725 261.32407669 -149.34870203 262.65909241 -150 264 C-152 266.25 -152 266.25 -154 268 C-154.66 268 -155.32 268 -156 268 C-156.268125 268.639375 -156.53625 269.27875 -156.8125 269.9375 C-158 272 -158 272 -161 273 C-161.70151152 274.3153341 -162.36525925 275.65117592 -163 277 C-164.5 278.75 -164.5 278.75 -166 280 C-166.66 280 -167.32 280 -168 280 C-168.33 280.99 -168.66 281.98 -169 283 C-169.66 283 -170.32 283 -171 283 C-171.2371875 283.59425781 -171.474375 284.18851562 -171.71875 284.80078125 C-174.18949715 289.04172834 -178.64412957 291.01450507 -183 293 C-189.41444188 294.68903873 -195.77542184 294.25372658 -202 292 C-205.375 290 -205.375 290 -208 288 C-208.99 287.34 -209.98 286.68 -211 286 C-211 285.34 -211 284.68 -211 284 C-211.66 284 -212.32 284 -213 284 C-214.5859375 282.35546875 -214.5859375 282.35546875 -216.375 280.1875 C-218.23566282 277.93749143 -219.86872703 276.09649715 -222.2265625 274.36328125 C-223.10441406 273.68845703 -223.10441406 273.68845703 -224 273 C-224 272.34 -224 271.68 -224 271 C-224.66 271 -225.32 271 -226 271 C-227.515625 269.42578125 -227.515625 269.42578125 -229.25 267.3125 C-231.41897174 264.75365111 -233.40724173 262.66063189 -236 260.5 C-243.59482176 254.17098187 -250.8146173 246.13131778 -252 236 C-252 228.67467154 -250.42901155 221.66598828 -245.4375 216.1875 C-244.633125 215.465625 -243.82875 214.74375 -243 214 C-242.34 213.01 -241.68 212.02 -241 211 C-240.34 211 -239.68 211 -239 211 C-239 210.34 -239 209.68 -239 209 C-238.34 209 -237.68 209 -237 209 C-237 208.34 -237 207.68 -237 207 C-236.34 207 -235.68 207 -235 207 C-235 206.34 -235 205.68 -235 205 C-234.34 205 -233.68 205 -233 205 C-233 204.34 -233 203.68 -233 203 C-230.625 200.375 -230.625 200.375 -228 198 C-227.34 198 -226.68 198 -226 198 C-226 197.34 -226 196.68 -226 196 C-225.34 196 -224.68 196 -224 196 C-224 195.34 -224 194.68 -224 194 C-223.34 194 -222.68 194 -222 194 C-222 193.34 -222 192.68 -222 192 C-221.34 192 -220.68 192 -220 192 C-220 191.34 -220 190.68 -220 190 C-219.34 190 -218.68 190 -218 190 C-218 189.34 -218 188.68 -218 188 C-215.625 185.375 -215.625 185.375 -213 183 C-212.34 183 -211.68 183 -211 183 C-211 182.34 -211 181.68 -211 181 C-210.34 181 -209.68 181 -209 181 C-209 180.34 -209 179.68 -209 179 C-208.34 179 -207.68 179 -207 179 C-207 178.34 -207 177.68 -207 177 C-206.34 177 -205.68 177 -205 177 C-205 176.34 -205 175.68 -205 175 C-202.625 172.375 -202.625 172.375 -200 170 C-199.34 170 -198.68 170 -198 170 C-198 169.34 -198 168.68 -198 168 C-197.34 168 -196.68 168 -196 168 C-196 167.34 -196 166.68 -196 166 C-195.34 166 -194.68 166 -194 166 C-194 165.34 -194 164.68 -194 164 C-193.34 164 -192.68 164 -192 164 C-192 163.34 -192 162.68 -192 162 C-191.34 162 -190.68 162 -190 162 C-190 161.34 -190 160.68 -190 160 C-188.625 158.375 -188.625 158.375 -187 157 C-186.34 157 -185.68 157 -185 157 C-185 156.34 -185 155.68 -185 155 C-184.34 155 -183.68 155 -183 155 C-183 154.34 -183 153.68 -183 153 C-182.34 153 -181.68 153 -181 153 C-181 152.34 -181 151.68 -181 151 C-180.34 151 -179.68 151 -179 151 C-179 150.34 -179 149.68 -179 149 C-178.34 149 -177.68 149 -177 149 C-177 148.34 -177 147.68 -177 147 C-174.625 144.375 -174.625 144.375 -172 142 C-171.34 142 -170.68 142 -170 142 C-170 141.34 -170 140.68 -170 140 C-169.34 140 -168.68 140 -168 140 C-168 139.34 -168 138.68 -168 138 C-167.34 138 -166.68 138 -166 138 C-166 137.34 -166 136.68 -166 136 C-165.34 136 -164.68 136 -164 136 C-164 135.34 -164 134.68 -164 134 C-163.34 134 -162.68 134 -162 134 C-162 133.34 -162 132.68 -162 132 C-160.625 130.375 -160.625 130.375 -159 129 C-158.34 129 -157.68 129 -157 129 C-157 128.34 -157 127.68 -157 127 C-156.34 127 -155.68 127 -155 127 C-155 126.34 -155 125.68 -155 125 C-154.34 125 -153.68 125 -153 125 C-153 124.34 -153 123.68 -153 123 C-152.34 123 -151.68 123 -151 123 C-151 122.34 -151 121.68 -151 121 C-150.34 121 -149.68 121 -149 121 C-149 120.34 -149 119.68 -149 119 C-146.625 116.375 -146.625 116.375 -144 114 C-143.34 114 -142.68 114 -142 114 C-142 113.34 -142 112.68 -142 112 C-141.34 112 -140.68 112 -140 112 C-140 111.34 -140 110.68 -140 110 C-139.34 110 -138.68 110 -138 110 C-138 109.34 -138 108.68 -138 108 C-137.34 108 -136.68 108 -136 108 C-136 107.34 -136 106.68 -136 106 C-135.34 106 -134.68 106 -134 106 C-134 105.34 -134 104.68 -134 104 C-132.625 102.375 -132.625 102.375 -131 101 C-130.34 101 -129.68 101 -129 101 C-129 100.34 -129 99.68 -129 99 C-128.34 99 -127.68 99 -127 99 C-127 98.34 -127 97.68 -127 97 C-126.34 97 -125.68 97 -125 97 C-125 96.34 -125 95.68 -125 95 C-124.34 95 -123.68 95 -123 95 C-123 94.34 -123 93.68 -123 93 C-122.34 93 -121.68 93 -121 93 C-121 92.34 -121 91.68 -121 91 C-118.625 88.375 -118.625 88.375 -116 86 C-115.34 86 -114.68 86 -114 86 C-114 85.34 -114 84.68 -114 84 C-113.34 84 -112.68 84 -112 84 C-112 83.34 -112 82.68 -112 82 C-111.34 82 -110.68 82 -110 82 C-110 81.34 -110 80.68 -110 80 C-109.34 80 -108.68 80 -108 80 C-108 79.34 -108 78.68 -108 78 C-105.625 75.375 -105.625 75.375 -103 73 C-102.34 73 -101.68 73 -101 73 C-101 72.34 -101 71.68 -101 71 C-100.34 71 -99.68 71 -99 71 C-99 70.34 -99 69.68 -99 69 C-98.34 69 -97.68 69 -97 69 C-97 68.34 -97 67.68 -97 67 C-96.34 67 -95.68 67 -95 67 C-95 66.34 -95 65.68 -95 65 C-94.34 65 -93.68 65 -93 65 C-93 64.34 -93 63.68 -93 63 C-90.625 60.375 -90.625 60.375 -88 58 C-87.34 58 -86.68 58 -86 58 C-86 57.34 -86 56.68 -86 56 C-85.34 56 -84.68 56 -84 56 C-84 55.34 -84 54.68 -84 54 C-83.34 54 -82.68 54 -82 54 C-82 53.34 -82 52.68 -82 52 C-81.34 52 -80.68 52 -80 52 C-80 51.34 -80 50.68 -80 50 C-77.625 47.375 -77.625 47.375 -75 45 C-74.34 45 -73.68 45 -73 45 C-73 44.34 -73 43.68 -73 43 C-72.34 43 -71.68 43 -71 43 C-71 42.34 -71 41.68 -71 41 C-70.34 41 -69.68 41 -69 41 C-69 40.34 -69 39.68 -69 39 C-68.34 39 -67.68 39 -67 39 C-67 38.34 -67 37.68 -67 37 C-66.34 37 -65.68 37 -65 37 C-65 36.34 -65 35.68 -65 35 C-63.625 33.375 -63.625 33.375 -62 32 C-61.34 32 -60.68 32 -60 32 C-60 31.34 -60 30.68 -60 30 C-59.34 30 -58.68 30 -58 30 C-58 29.34 -58 28.68 -58 28 C-57.34 28 -56.68 28 -56 28 C-56 27.34 -56 26.68 -56 26 C-55.34 26 -54.68 26 -54 26 C-54 25.34 -54 24.68 -54 24 C-53.34 24 -52.68 24 -52 24 C-52 23.34 -52 22.68 -52 22 C-49.625 19.375 -49.625 19.375 -47 17 C-46.34 17 -45.68 17 -45 17 C-45 16.34 -45 15.68 -45 15 C-44.34 15 -43.68 15 -43 15 C-43 14.34 -43 13.68 -43 13 C-42.34 13 -41.68 13 -41 13 C-41 12.34 -41 11.68 -41 11 C-40.34 11 -39.68 11 -39 11 C-39 10.34 -39 9.68 -39 9 C-38.34 9 -37.68 9 -37 9 C-37 8.34 -37 7.68 -37 7 C-35.625 5.375 -35.625 5.375 -34 4 C-33.34 4 -32.68 4 -32 4 C-32 3.34 -32 2.68 -32 2 C-22.2011284 -5.64789979 -10.56011261 -6.25560957 0 0 Z " fill="#F9802B" transform="translate(261,95)"/>
<path d="M0 0 C1.95977504 0.94875091 3.72898918 1.97527719 5.52734375 3.19921875 C6.35234375 3.73546875 7.17734375 4.27171875 8.02734375 4.82421875 C8.76984375 5.50484375 8.76984375 5.50484375 9.52734375 6.19921875 C9.52734375 6.85921875 9.52734375 7.51921875 9.52734375 8.19921875 C10.18734375 8.19921875 10.84734375 8.19921875 11.52734375 8.19921875 C13.11328125 9.84375 13.11328125 9.84375 14.90234375 12.01171875 C16.76300657 14.26172732 18.39607078 16.1027216 20.75390625 17.8359375 C21.33914063 18.28582031 21.924375 18.73570313 22.52734375 19.19921875 C22.52734375 19.85921875 22.52734375 20.51921875 22.52734375 21.19921875 C23.18734375 21.19921875 23.84734375 21.19921875 24.52734375 21.19921875 C26.11328125 22.84375 26.11328125 22.84375 27.90234375 25.01171875 C29.76300657 27.26172732 31.39607078 29.1027216 33.75390625 30.8359375 C34.33914063 31.28582031 34.924375 31.73570312 35.52734375 32.19921875 C35.52734375 32.85921875 35.52734375 33.51921875 35.52734375 34.19921875 C36.18734375 34.19921875 36.84734375 34.19921875 37.52734375 34.19921875 C37.52734375 34.85921875 37.52734375 35.51921875 37.52734375 36.19921875 C38.18734375 36.19921875 38.84734375 36.19921875 39.52734375 36.19921875 C41.18359375 37.87890625 41.18359375 37.87890625 43.02734375 40.07421875 C44.81667633 42.18957379 46.56753499 44.23940999 48.52734375 46.19921875 C48.52734375 47.18921875 48.52734375 48.17921875 48.52734375 49.19921875 C49.18734375 49.19921875 49.84734375 49.19921875 50.52734375 49.19921875 C53.3900495 58.46091383 52.22907287 65.3472578 48.52734375 74.19921875 C47.86734375 74.19921875 47.20734375 74.19921875 46.52734375 74.19921875 C46.52734375 74.85921875 46.52734375 75.51921875 46.52734375 76.19921875 C45.86734375 76.19921875 45.20734375 76.19921875 44.52734375 76.19921875 C44.12515625 77.09640625 44.12515625 77.09640625 43.71484375 78.01171875 C42.52816969 80.19769729 41.43135262 81.61254469 39.52734375 83.19921875 C38.86734375 83.19921875 38.20734375 83.19921875 37.52734375 83.19921875 C37.52734375 83.85921875 37.52734375 84.51921875 37.52734375 85.19921875 C36.86734375 85.19921875 36.20734375 85.19921875 35.52734375 85.19921875 C35.52734375 85.85921875 35.52734375 86.51921875 35.52734375 87.19921875 C34.86734375 87.19921875 34.20734375 87.19921875 33.52734375 87.19921875 C33.52734375 87.85921875 33.52734375 88.51921875 33.52734375 89.19921875 C32.86734375 89.19921875 32.20734375 89.19921875 31.52734375 89.19921875 C31.12515625 90.09640625 31.12515625 90.09640625 30.71484375 91.01171875 C29.52816969 93.19769729 28.43135262 94.61254469 26.52734375 96.19921875 C25.86734375 96.19921875 25.20734375 96.19921875 24.52734375 96.19921875 C24.52734375 96.85921875 24.52734375 97.51921875 24.52734375 98.19921875 C23.86734375 98.19921875 23.20734375 98.19921875 22.52734375 98.19921875 C22.52734375 98.85921875 22.52734375 99.51921875 22.52734375 100.19921875 C21.86734375 100.19921875 21.20734375 100.19921875 20.52734375 100.19921875 C20.52734375 100.85921875 20.52734375 101.51921875 20.52734375 102.19921875 C19.86734375 102.19921875 19.20734375 102.19921875 18.52734375 102.19921875 C18.52734375 102.85921875 18.52734375 103.51921875 18.52734375 104.19921875 C17.86734375 104.19921875 17.20734375 104.19921875 16.52734375 104.19921875 C16.12515625 105.09640625 16.12515625 105.09640625 15.71484375 106.01171875 C14.52816969 108.19769729 13.43135262 109.61254469 11.52734375 111.19921875 C10.86734375 111.19921875 10.20734375 111.19921875 9.52734375 111.19921875 C9.52734375 111.85921875 9.52734375 112.51921875 9.52734375 113.19921875 C8.86734375 113.19921875 8.20734375 113.19921875 7.52734375 113.19921875 C7.52734375 113.85921875 7.52734375 114.51921875 7.52734375 115.19921875 C6.86734375 115.19921875 6.20734375 115.19921875 5.52734375 115.19921875 C5.52734375 115.85921875 5.52734375 116.51921875 5.52734375 117.19921875 C4.86734375 117.19921875 4.20734375 117.19921875 3.52734375 117.19921875 C3.12515625 118.09640625 3.12515625 118.09640625 2.71484375 119.01171875 C1.52816969 121.19769729 0.43135262 122.61254469 -1.47265625 124.19921875 C-2.13265625 124.19921875 -2.79265625 124.19921875 -3.47265625 124.19921875 C-3.47265625 124.85921875 -3.47265625 125.51921875 -3.47265625 126.19921875 C-4.13265625 126.19921875 -4.79265625 126.19921875 -5.47265625 126.19921875 C-5.47265625 126.85921875 -5.47265625 127.51921875 -5.47265625 128.19921875 C-6.13265625 128.19921875 -6.79265625 128.19921875 -7.47265625 128.19921875 C-7.47265625 128.85921875 -7.47265625 129.51921875 -7.47265625 130.19921875 C-8.13265625 130.19921875 -8.79265625 130.19921875 -9.47265625 130.19921875 C-9.69953125 130.75609375 -9.92640625 131.31296875 -10.16015625 131.88671875 C-11.84815661 134.86081463 -13.93942142 136.9193074 -16.47265625 139.19921875 C-17.13265625 139.19921875 -17.79265625 139.19921875 -18.47265625 139.19921875 C-18.47265625 139.85921875 -18.47265625 140.51921875 -18.47265625 141.19921875 C-19.13265625 141.19921875 -19.79265625 141.19921875 -20.47265625 141.19921875 C-20.47265625 141.85921875 -20.47265625 142.51921875 -20.47265625 143.19921875 C-21.13265625 143.19921875 -21.79265625 143.19921875 -22.47265625 143.19921875 C-22.47265625 143.85921875 -22.47265625 144.51921875 -22.47265625 145.19921875 C-23.13265625 145.19921875 -23.79265625 145.19921875 -24.47265625 145.19921875 C-24.74078125 145.79734375 -25.00890625 146.39546875 -25.28515625 147.01171875 C-26.47183031 149.19769729 -27.56864738 150.61254469 -29.47265625 152.19921875 C-30.13265625 152.19921875 -30.79265625 152.19921875 -31.47265625 152.19921875 C-31.47265625 152.85921875 -31.47265625 153.51921875 -31.47265625 154.19921875 C-32.13265625 154.19921875 -32.79265625 154.19921875 -33.47265625 154.19921875 C-33.47265625 154.85921875 -33.47265625 155.51921875 -33.47265625 156.19921875 C-34.13265625 156.19921875 -34.79265625 156.19921875 -35.47265625 156.19921875 C-35.47265625 156.85921875 -35.47265625 157.51921875 -35.47265625 158.19921875 C-36.13265625 158.19921875 -36.79265625 158.19921875 -37.47265625 158.19921875 C-37.69953125 158.75609375 -37.92640625 159.31296875 -38.16015625 159.88671875 C-39.84815661 162.86081463 -41.93942142 164.9193074 -44.47265625 167.19921875 C-45.13265625 167.19921875 -45.79265625 167.19921875 -46.47265625 167.19921875 C-46.47265625 167.85921875 -46.47265625 168.51921875 -46.47265625 169.19921875 C-47.13265625 169.19921875 -47.79265625 169.19921875 -48.47265625 169.19921875 C-48.47265625 169.85921875 -48.47265625 170.51921875 -48.47265625 171.19921875 C-49.13265625 171.19921875 -49.79265625 171.19921875 -50.47265625 171.19921875 C-50.47265625 171.85921875 -50.47265625 172.51921875 -50.47265625 173.19921875 C-51.13265625 173.19921875 -51.79265625 173.19921875 -52.47265625 173.19921875 C-52.74078125 173.79734375 -53.00890625 174.39546875 -53.28515625 175.01171875 C-54.47183031 177.19769729 -55.56864738 178.61254469 -57.47265625 180.19921875 C-58.13265625 180.19921875 -58.79265625 180.19921875 -59.47265625 180.19921875 C-59.47265625 180.85921875 -59.47265625 181.51921875 -59.47265625 182.19921875 C-60.13265625 182.19921875 -60.79265625 182.19921875 -61.47265625 182.19921875 C-61.47265625 182.85921875 -61.47265625 183.51921875 -61.47265625 184.19921875 C-62.13265625 184.19921875 -62.79265625 184.19921875 -63.47265625 184.19921875 C-63.47265625 184.85921875 -63.47265625 185.51921875 -63.47265625 186.19921875 C-64.13265625 186.19921875 -64.79265625 186.19921875 -65.47265625 186.19921875 C-65.74078125 186.79734375 -66.00890625 187.39546875 -66.28515625 188.01171875 C-67.47183031 190.19769729 -68.56864738 191.61254469 -70.47265625 193.19921875 C-71.13265625 193.19921875 -71.79265625 193.19921875 -72.47265625 193.19921875 C-72.47265625 193.85921875 -72.47265625 194.51921875 -72.47265625 195.19921875 C-73.13265625 195.19921875 -73.79265625 195.19921875 -74.47265625 195.19921875 C-74.47265625 195.85921875 -74.47265625 196.51921875 -74.47265625 197.19921875 C-75.13265625 197.19921875 -75.79265625 197.19921875 -76.47265625 197.19921875 C-76.47265625 197.85921875 -76.47265625 198.51921875 -76.47265625 199.19921875 C-77.13265625 199.19921875 -77.79265625 199.19921875 -78.47265625 199.19921875 C-78.47265625 199.85921875 -78.47265625 200.51921875 -78.47265625 201.19921875 C-79.13265625 201.19921875 -79.79265625 201.19921875 -80.47265625 201.19921875 C-80.74078125 201.79734375 -81.00890625 202.39546875 -81.28515625 203.01171875 C-82.47183031 205.19769729 -83.56864738 206.61254469 -85.47265625 208.19921875 C-86.13265625 208.19921875 -86.79265625 208.19921875 -87.47265625 208.19921875 C-87.47265625 208.85921875 -87.47265625 209.51921875 -87.47265625 210.19921875 C-88.13265625 210.19921875 -88.79265625 210.19921875 -89.47265625 210.19921875 C-89.47265625 210.85921875 -89.47265625 211.51921875 -89.47265625 212.19921875 C-90.13265625 212.19921875 -90.79265625 212.19921875 -91.47265625 212.19921875 C-91.47265625 212.85921875 -91.47265625 213.51921875 -91.47265625 214.19921875 C-92.13265625 214.19921875 -92.79265625 214.19921875 -93.47265625 214.19921875 C-93.74078125 214.79734375 -94.00890625 215.39546875 -94.28515625 216.01171875 C-95.47183031 218.19769729 -96.56864738 219.61254469 -98.47265625 221.19921875 C-99.13265625 221.19921875 -99.79265625 221.19921875 -100.47265625 221.19921875 C-100.47265625 221.85921875 -100.47265625 222.51921875 -100.47265625 223.19921875 C-101.13265625 223.19921875 -101.79265625 223.19921875 -102.47265625 223.19921875 C-102.47265625 223.85921875 -102.47265625 224.51921875 -102.47265625 225.19921875 C-103.13265625 225.19921875 -103.79265625 225.19921875 -104.47265625 225.19921875 C-104.47265625 225.85921875 -104.47265625 226.51921875 -104.47265625 227.19921875 C-105.13265625 227.19921875 -105.79265625 227.19921875 -106.47265625 227.19921875 C-106.47265625 227.85921875 -106.47265625 228.51921875 -106.47265625 229.19921875 C-107.13265625 229.19921875 -107.79265625 229.19921875 -108.47265625 229.19921875 C-108.74078125 229.79734375 -109.00890625 230.39546875 -109.28515625 231.01171875 C-110.47183031 233.19769729 -111.56864738 234.61254469 -113.47265625 236.19921875 C-114.13265625 236.19921875 -114.79265625 236.19921875 -115.47265625 236.19921875 C-115.47265625 236.85921875 -115.47265625 237.51921875 -115.47265625 238.19921875 C-116.13265625 238.19921875 -116.79265625 238.19921875 -117.47265625 238.19921875 C-117.47265625 238.85921875 -117.47265625 239.51921875 -117.47265625 240.19921875 C-118.13265625 240.19921875 -118.79265625 240.19921875 -119.47265625 240.19921875 C-119.47265625 240.85921875 -119.47265625 241.51921875 -119.47265625 242.19921875 C-120.13265625 242.19921875 -120.79265625 242.19921875 -121.47265625 242.19921875 C-121.74078125 242.79734375 -122.00890625 243.39546875 -122.28515625 244.01171875 C-123.47183031 246.19769729 -124.56864738 247.61254469 -126.47265625 249.19921875 C-127.13265625 249.19921875 -127.79265625 249.19921875 -128.47265625 249.19921875 C-128.47265625 249.85921875 -128.47265625 250.51921875 -128.47265625 251.19921875 C-129.13265625 251.19921875 -129.79265625 251.19921875 -130.47265625 251.19921875 C-130.47265625 251.85921875 -130.47265625 252.51921875 -130.47265625 253.19921875 C-131.13265625 253.19921875 -131.79265625 253.19921875 -132.47265625 253.19921875 C-132.47265625 253.85921875 -132.47265625 254.51921875 -132.47265625 255.19921875 C-133.13265625 255.19921875 -133.79265625 255.19921875 -134.47265625 255.19921875 C-134.47265625 255.85921875 -134.47265625 256.51921875 -134.47265625 257.19921875 C-135.13265625 257.19921875 -135.79265625 257.19921875 -136.47265625 257.19921875 C-136.74078125 257.79734375 -137.00890625 258.39546875 -137.28515625 259.01171875 C-138.47183031 261.19769729 -139.56864738 262.61254469 -141.47265625 264.19921875 C-142.13265625 264.19921875 -142.79265625 264.19921875 -143.47265625 264.19921875 C-143.47265625 264.85921875 -143.47265625 265.51921875 -143.47265625 266.19921875 C-144.13265625 266.19921875 -144.79265625 266.19921875 -145.47265625 266.19921875 C-145.47265625 266.85921875 -145.47265625 267.51921875 -145.47265625 268.19921875 C-146.13265625 268.19921875 -146.79265625 268.19921875 -147.47265625 268.19921875 C-147.47265625 268.85921875 -147.47265625 269.51921875 -147.47265625 270.19921875 C-148.13265625 270.19921875 -148.79265625 270.19921875 -149.47265625 270.19921875 C-149.74078125 270.79734375 -150.00890625 271.39546875 -150.28515625 272.01171875 C-151.47183031 274.19769729 -152.56864738 275.61254469 -154.47265625 277.19921875 C-155.13265625 277.19921875 -155.79265625 277.19921875 -156.47265625 277.19921875 C-156.47265625 277.85921875 -156.47265625 278.51921875 -156.47265625 279.19921875 C-157.13265625 279.19921875 -157.79265625 279.19921875 -158.47265625 279.19921875 C-158.47265625 279.85921875 -158.47265625 280.51921875 -158.47265625 281.19921875 C-159.13265625 281.19921875 -159.79265625 281.19921875 -160.47265625 281.19921875 C-160.47265625 281.85921875 -160.47265625 282.51921875 -160.47265625 283.19921875 C-161.13265625 283.19921875 -161.79265625 283.19921875 -162.47265625 283.19921875 C-162.47265625 283.85921875 -162.47265625 284.51921875 -162.47265625 285.19921875 C-163.13265625 285.19921875 -163.79265625 285.19921875 -164.47265625 285.19921875 C-164.47265625 285.85921875 -164.47265625 286.51921875 -164.47265625 287.19921875 C-171.04967306 291.76659154 -177.65898864 291.80184148 -185.47265625 291.19921875 C-188.10439682 290.4608819 -190.0490021 289.51642209 -192.47265625 288.19921875 C-193.13265625 287.86921875 -193.79265625 287.53921875 -194.47265625 287.19921875 C-194.47265625 286.53921875 -194.47265625 285.87921875 -194.47265625 285.19921875 C-195.13265625 285.19921875 -195.79265625 285.19921875 -196.47265625 285.19921875 C-196.47265625 284.53921875 -196.47265625 283.87921875 -196.47265625 283.19921875 C-197.13265625 283.19921875 -197.79265625 283.19921875 -198.47265625 283.19921875 C-198.47265625 282.53921875 -198.47265625 281.87921875 -198.47265625 281.19921875 C-199.13265625 281.19921875 -199.79265625 281.19921875 -200.47265625 281.19921875 C-200.47265625 280.53921875 -200.47265625 279.87921875 -200.47265625 279.19921875 C-201.07078125 278.93109375 -201.66890625 278.66296875 -202.28515625 278.38671875 C-204.47113479 277.20004469 -205.88598219 276.10322762 -207.47265625 274.19921875 C-207.47265625 273.53921875 -207.47265625 272.87921875 -207.47265625 272.19921875 C-208.13265625 272.19921875 -208.79265625 272.19921875 -209.47265625 272.19921875 C-209.47265625 271.53921875 -209.47265625 270.87921875 -209.47265625 270.19921875 C-210.13265625 270.19921875 -210.79265625 270.19921875 -211.47265625 270.19921875 C-211.47265625 269.53921875 -211.47265625 268.87921875 -211.47265625 268.19921875 C-212.13265625 268.19921875 -212.79265625 268.19921875 -213.47265625 268.19921875 C-213.47265625 267.53921875 -213.47265625 266.87921875 -213.47265625 266.19921875 C-214.13265625 266.19921875 -214.79265625 266.19921875 -215.47265625 266.19921875 C-215.47265625 265.53921875 -215.47265625 264.87921875 -215.47265625 264.19921875 C-216.11203125 263.93109375 -216.75140625 263.66296875 -217.41015625 263.38671875 C-219.47265625 262.19921875 -219.47265625 262.19921875 -220.47265625 259.19921875 C-221.13265625 259.19921875 -221.79265625 259.19921875 -222.47265625 259.19921875 C-222.47265625 258.53921875 -222.47265625 257.87921875 -222.47265625 257.19921875 C-223.13265625 257.19921875 -223.79265625 257.19921875 -224.47265625 257.19921875 C-224.47265625 256.53921875 -224.47265625 255.87921875 -224.47265625 255.19921875 C-225.13265625 255.19921875 -225.79265625 255.19921875 -226.47265625 255.19921875 C-226.47265625 254.53921875 -226.47265625 253.87921875 -226.47265625 253.19921875 C-227.13265625 253.19921875 -227.79265625 253.19921875 -228.47265625 253.19921875 C-228.47265625 252.53921875 -228.47265625 251.87921875 -228.47265625 251.19921875 C-229.43171875 250.79703125 -229.43171875 250.79703125 -230.41015625 250.38671875 C-232.47265625 249.19921875 -232.47265625 249.19921875 -233.47265625 246.19921875 C-234.13265625 246.19921875 -234.79265625 246.19921875 -235.47265625 246.19921875 C-235.47265625 245.53921875 -235.47265625 244.87921875 -235.47265625 244.19921875 C-236.13265625 244.19921875 -236.79265625 244.19921875 -237.47265625 244.19921875 C-237.47265625 242.87921875 -237.47265625 241.55921875 -237.47265625 240.19921875 C-238.13265625 240.19921875 -238.79265625 240.19921875 -239.47265625 240.19921875 C-240.9840391 226.61719716 -240.9840391 226.61719716 -238.47265625 220.19921875 C-238.14265625 219.20921875 -237.81265625 218.21921875 -237.47265625 217.19921875 C-236.81265625 217.19921875 -236.15265625 217.19921875 -235.47265625 217.19921875 C-235.25362137 216.65486679 -235.03458649 216.11051483 -234.80891418 215.54966736 C-233.03219421 212.42445561 -230.63092689 210.09519851 -228.0925293 207.59204102 C-227.54431519 207.04353485 -226.99610107 206.49502869 -226.43127441 205.92990112 C-224.62034228 204.12036049 -222.80242834 202.31800845 -220.984375 200.515625 C-219.72082071 199.25580397 -218.45770957 197.99553833 -217.19502258 196.73484802 C-213.86899157 193.41644947 -210.53700449 190.10409456 -207.20373535 186.79296875 C-203.82430475 183.43392656 -200.45045589 180.06928883 -197.07617188 176.70507812 C-191.6178368 171.26430878 -186.15614549 165.82693674 -180.68983459 160.3941803 C-177.61192919 157.33467092 -174.54088836 154.26842541 -171.47265625 151.19921875 C-51.47265625 31.19921875 -51.47265625 31.19921875 -48.81195068 28.54248047 C-46.26358715 25.98979508 -43.74853452 23.40667727 -41.234375 20.8203125 C-39.72724902 19.28367404 -38.21818824 17.74896482 -36.70825195 16.21508789 C-35.67792052 15.16460804 -34.65120326 14.11057085 -33.62817383 13.05297852 C-24.06531977 3.1769406 -14.71627011 -4.76593266 0 0 Z " fill="#F9802A" transform="translate(427.47265625,97.80078125)"/>
<path d="M0 0 C3.73704074 2.34414373 7.18572348 5.07010341 10.1484375 8.34765625 C10.1484375 9.00765625 10.1484375 9.66765625 10.1484375 10.34765625 C10.69209961 10.56679688 11.23576172 10.7859375 11.79589844 11.01171875 C14.92510957 12.7887054 17.27529149 15.188706 19.7890625 17.72265625 C20.31610779 18.24778809 20.84315308 18.77291992 21.38616943 19.31396484 C22.49460678 20.42104508 23.60053796 21.53063955 24.70410156 22.64257812 C26.39950051 24.348726 28.1053536 26.04389672 29.8125 27.73828125 C30.88866308 28.81576517 31.96420601 29.89386892 33.0390625 30.97265625 C33.55148499 31.48103027 34.06390747 31.9894043 34.59185791 32.51318359 C38.1484375 36.11771534 38.1484375 36.11771534 38.1484375 38.34765625 C38.7878125 38.59515625 39.4271875 38.84265625 40.0859375 39.09765625 C42.1484375 40.34765625 42.1484375 40.34765625 42.8984375 42.47265625 C42.9809375 43.09140625 43.0634375 43.71015625 43.1484375 44.34765625 C43.8084375 44.34765625 44.4684375 44.34765625 45.1484375 44.34765625 C48.67238867 51.58028183 48.69727195 61.84350901 46.0859375 69.4375 C43.23118783 74.47209928 39.52506401 78.13422936 35.04296875 81.7421875 C33.20132167 83.30284101 31.7667519 84.8953867 30.2734375 86.78515625 C29.2215625 88.05359375 29.2215625 88.05359375 28.1484375 89.34765625 C27.4884375 89.34765625 26.8284375 89.34765625 26.1484375 89.34765625 C26.1484375 90.00765625 26.1484375 90.66765625 26.1484375 91.34765625 C24.50390625 92.93359375 24.50390625 92.93359375 22.3359375 94.72265625 C20.08592893 96.58331907 18.24493465 98.21638328 16.51171875 100.57421875 C16.06183594 101.15945313 15.61195313 101.7446875 15.1484375 102.34765625 C14.4884375 102.34765625 13.8284375 102.34765625 13.1484375 102.34765625 C13.1484375 103.00765625 13.1484375 103.66765625 13.1484375 104.34765625 C11.50390625 106.0390625 11.50390625 106.0390625 9.3359375 107.91015625 C8.62824219 108.53019531 7.92054688 109.15023437 7.19140625 109.7890625 C5.1484375 111.34765625 5.1484375 111.34765625 2.1484375 112.34765625 C2.1484375 113.00765625 2.1484375 113.66765625 2.1484375 114.34765625 C-5.27192889 118.05783945 -12.86444627 119.48361725 -20.95703125 117.09375 C-24.14575727 115.83798367 -26.94746472 114.16271736 -29.8515625 112.34765625 C-29.8515625 111.68765625 -29.8515625 111.02765625 -29.8515625 110.34765625 C-30.5115625 110.34765625 -31.1715625 110.34765625 -31.8515625 110.34765625 C-31.8515625 109.68765625 -31.8515625 109.02765625 -31.8515625 108.34765625 C-32.5115625 108.34765625 -33.1715625 108.34765625 -33.8515625 108.34765625 C-33.8515625 107.68765625 -33.8515625 107.02765625 -33.8515625 106.34765625 C-34.5115625 106.34765625 -35.1715625 106.34765625 -35.8515625 106.34765625 C-35.8515625 105.68765625 -35.8515625 105.02765625 -35.8515625 104.34765625 C-36.5115625 104.34765625 -37.1715625 104.34765625 -37.8515625 104.34765625 C-37.8515625 103.68765625 -37.8515625 103.02765625 -37.8515625 102.34765625 C-38.8415625 102.01765625 -39.8315625 101.68765625 -40.8515625 101.34765625 C-40.8515625 100.68765625 -40.8515625 100.02765625 -40.8515625 99.34765625 C-41.5115625 99.34765625 -42.1715625 99.34765625 -42.8515625 99.34765625 C-42.8515625 98.68765625 -42.8515625 98.02765625 -42.8515625 97.34765625 C-43.5115625 97.34765625 -44.1715625 97.34765625 -44.8515625 97.34765625 C-44.8515625 96.68765625 -44.8515625 96.02765625 -44.8515625 95.34765625 C-45.5115625 95.34765625 -46.1715625 95.34765625 -46.8515625 95.34765625 C-46.8515625 94.68765625 -46.8515625 94.02765625 -46.8515625 93.34765625 C-47.5115625 93.34765625 -48.1715625 93.34765625 -48.8515625 93.34765625 C-48.8515625 92.68765625 -48.8515625 92.02765625 -48.8515625 91.34765625 C-49.5115625 91.34765625 -50.1715625 91.34765625 -50.8515625 91.34765625 C-50.8515625 90.68765625 -50.8515625 90.02765625 -50.8515625 89.34765625 C-52.3365625 88.85265625 -52.3365625 88.85265625 -53.8515625 88.34765625 C-53.8515625 87.68765625 -53.8515625 87.02765625 -53.8515625 86.34765625 C-54.5115625 86.34765625 -55.1715625 86.34765625 -55.8515625 86.34765625 C-55.8515625 85.68765625 -55.8515625 85.02765625 -55.8515625 84.34765625 C-56.5115625 84.34765625 -57.1715625 84.34765625 -57.8515625 84.34765625 C-57.8515625 83.68765625 -57.8515625 83.02765625 -57.8515625 82.34765625 C-58.5115625 82.34765625 -59.1715625 82.34765625 -59.8515625 82.34765625 C-59.8515625 81.68765625 -59.8515625 81.02765625 -59.8515625 80.34765625 C-60.5115625 80.34765625 -61.1715625 80.34765625 -61.8515625 80.34765625 C-61.8515625 79.68765625 -61.8515625 79.02765625 -61.8515625 78.34765625 C-62.5115625 78.34765625 -63.1715625 78.34765625 -63.8515625 78.34765625 C-63.8515625 77.68765625 -63.8515625 77.02765625 -63.8515625 76.34765625 C-64.5115625 76.34765625 -65.1715625 76.34765625 -65.8515625 76.34765625 C-71.07821876 69.94500233 -73.33752645 63.93037565 -73.09765625 55.60546875 C-72.32574709 48.5235085 -68.74496827 42.44445541 -63.8515625 37.34765625 C-61.66015625 36.12109375 -61.66015625 36.12109375 -59.8515625 35.34765625 C-59.8515625 34.68765625 -59.8515625 34.02765625 -59.8515625 33.34765625 C-59.1915625 33.34765625 -58.5315625 33.34765625 -57.8515625 33.34765625 C-57.8515625 32.68765625 -57.8515625 32.02765625 -57.8515625 31.34765625 C-57.1915625 31.34765625 -56.5315625 31.34765625 -55.8515625 31.34765625 C-55.6246875 30.79078125 -55.3978125 30.23390625 -55.1640625 29.66015625 C-53.47606214 26.68606037 -51.38479733 24.6275676 -48.8515625 22.34765625 C-48.1915625 22.34765625 -47.5315625 22.34765625 -46.8515625 22.34765625 C-46.8515625 21.68765625 -46.8515625 21.02765625 -46.8515625 20.34765625 C-46.1915625 20.34765625 -45.5315625 20.34765625 -44.8515625 20.34765625 C-44.8515625 19.68765625 -44.8515625 19.02765625 -44.8515625 18.34765625 C-44.1915625 18.34765625 -43.5315625 18.34765625 -42.8515625 18.34765625 C-42.8515625 17.68765625 -42.8515625 17.02765625 -42.8515625 16.34765625 C-42.1915625 16.34765625 -41.5315625 16.34765625 -40.8515625 16.34765625 C-40.6246875 15.79078125 -40.3978125 15.23390625 -40.1640625 14.66015625 C-38.47606214 11.68606037 -36.38479733 9.6275676 -33.8515625 7.34765625 C-33.1915625 7.34765625 -32.5315625 7.34765625 -31.8515625 7.34765625 C-31.8515625 6.68765625 -31.8515625 6.02765625 -31.8515625 5.34765625 C-31.1915625 5.34765625 -30.5315625 5.34765625 -29.8515625 5.34765625 C-29.8515625 4.68765625 -29.8515625 4.02765625 -29.8515625 3.34765625 C-29.1915625 3.34765625 -28.5315625 3.34765625 -27.8515625 3.34765625 C-27.8515625 2.68765625 -27.8515625 2.02765625 -27.8515625 1.34765625 C-18.46370098 -3.2139077 -9.63085886 -4.85019787 0 0 Z " fill="#F9812B" transform="translate(430.8515625,270.65234375)"/>
<path d="M0 0 C0.33 1.32 0.66 2.64 1 4 C-0.3125 5.75 -0.3125 5.75 -2 7 C-2.66 7 -3.32 7 -4 7 C-4 7.66 -4 8.32 -4 9 C-4.66 9 -5.32 9 -6 9 C-6.33 10.32 -6.66 11.64 -7 13 C-6.01 12.67 -5.02 12.34 -4 12 C-3.67 13.32 -3.34 14.64 -3 16 C-4.32 16.33 -5.64 16.66 -7 17 C-7.33 16.01 -7.66 15.02 -8 14 C-8.99 14 -9.98 14 -11 14 C-11.93380961 18.53140653 -11.93380961 18.53140653 -11 23 C-11.66 23 -12.32 23 -13 23 C-13.33 23.99 -13.66 24.98 -14 26 C-14.99 25.67 -15.98 25.34 -17 25 C-16.67 24.01 -16.34 23.02 -16 22 C-20.14670039 24.37629089 -20.14670039 24.37629089 -23 28 C-24.32 27.67 -25.64 27.34 -27 27 C-18.09 18.09 -9.18 9.18 0 0 Z " fill="#F4812F" transform="translate(251,254)"/>
<path d="M0 0 C0 3.59857954 -0.95830515 5.09451118 -3 8 C-3.66 8 -4.32 8 -5 8 C-5.0928125 8.804375 -5.0928125 8.804375 -5.1875 9.625 C-6.40035264 13.17026157 -8.44610926 15.2592392 -11 18 C-11.66 18 -12.32 18 -13 18 C-13.33 18.99 -13.66 19.98 -14 21 C-15.75 22 -15.75 22 -18 23 C-18.86625 23.556875 -19.7325 24.11375 -20.625 24.6875 C-21.40875 25.120625 -22.1925 25.55375 -23 26 C-23.66 25.67 -24.32 25.34 -25 25 C-16.75 16.75 -8.5 8.5 0 0 Z " fill="#F38C44" transform="translate(281,224)"/>
<path d="M0 0 C0.33 1.32 0.66 2.64 1 4 C0.01 4 -0.98 4 -2 4 C-2.2475 4.78375 -2.495 5.5675 -2.75 6.375 C-4 9 -4 9 -5.9375 9.9375 C-9.74295812 11.89788752 -10.70829827 16.1248948 -12 20 C-12.66 20 -13.32 20 -14 20 C-14.33 20.66 -14.66 21.32 -15 22 C-15.99 22 -16.98 22 -18 22 C-19.02019573 22.9793879 -20.02149805 23.97895449 -21 25 C-21.66 25 -22.32 25 -23 25 C-23 25.99 -23 26.98 -23 28 C-24.65 28.33 -26.3 28.66 -28 29 C-22.61359076 22.44622903 -16.64114873 16.52753365 -10.625 10.5625 C-9.59221405 9.53474017 -8.55966009 8.50674715 -7.52734375 7.47851562 C-5.02089713 4.98298402 -2.5113292 2.49061918 0 0 Z " fill="#F38D43" transform="translate(338,167)"/>
<path d="M0 0 C0.66 0.33 1.32 0.66 2 1 C1.52591957 5.26672384 -0.88307122 7.2455048 -4 10 C-4.680625 10.309375 -5.36125 10.61875 -6.0625 10.9375 C-8.99661928 12.54653315 -10.17660387 15.23727859 -12 18 C-13.62332967 19.38576923 -15.28724465 20.72641268 -17 22 C-17.515625 22.556875 -18.03125 23.11375 -18.5625 23.6875 C-20.30121778 25.27502493 -21.70726494 25.60470085 -24 26 C-24 25.34 -24 24.68 -24 24 C-23.34 24 -22.68 24 -22 24 C-22 23.34 -22 22.68 -22 22 C-19.625 19.375 -19.625 19.375 -17 17 C-16.34 17 -15.68 17 -15 17 C-15 16.34 -15 15.68 -15 15 C-14.34 15 -13.68 15 -13 15 C-13 14.34 -13 13.68 -13 13 C-12.34 13 -11.68 13 -11 13 C-11 12.34 -11 11.68 -11 11 C-10.34 11 -9.68 11 -9 11 C-9 10.34 -9 9.68 -9 9 C-6.625 6.375 -6.625 6.375 -4 4 C-3.34 4 -2.68 4 -2 4 C-2 3.34 -2 2.68 -2 2 C-1.34 2 -0.68 2 0 2 C0 1.34 0 0.68 0 0 Z " fill="#EF9757" transform="translate(190,136)"/>
<path d="M0 0 C0.99 0 1.98 0 3 0 C2.67 1.32 2.34 2.64 2 4 C1.34 4 0.68 4 0 4 C0 4.66 0 5.32 0 6 C-1.64453125 7.69140625 -1.64453125 7.69140625 -3.8125 9.5625 C-4.87404297 10.49255859 -4.87404297 10.49255859 -5.95703125 11.44140625 C-8 13 -8 13 -11 14 C-11 14.66 -11 15.32 -11 16 C-18.38258655 19.69129327 -25.86317511 20.92714274 -34 19 C-34 18.67 -34 18.34 -34 18 C-32.67935547 17.94392578 -32.67935547 17.94392578 -31.33203125 17.88671875 C-29.58986328 17.78810547 -29.58986328 17.78810547 -27.8125 17.6875 C-26.66394531 17.62949219 -25.51539063 17.57148438 -24.33203125 17.51171875 C-20.81550111 16.97166547 -18.97107452 15.86253915 -16 14 C-14.68 14 -13.36 14 -12 14 C-12 13.01 -12 12.02 -12 11 C-10.68 11 -9.36 11 -8 11 C-8 10.01 -8 9.02 -8 8 C-7.01 8 -6.02 8 -5 8 C-5 7.34 -5 6.68 -5 6 C-4.34 6 -3.68 6 -3 6 C-2.67 5.01 -2.34 4.02 -2 3 C-1.34 2.01 -0.68 1.02 0 0 Z " fill="#EE9C61" transform="translate(444,369)"/>
<path d="M0 0 C3.125 0.375 3.125 0.375 6 1 C4.71937515 2.7074998 3.38232443 4.37373596 2 6 C1.34 6 0.68 6 0 6 C0 6.66 0 7.32 0 8 C-0.66 8 -1.32 8 -2 8 C-2 8.66 -2 9.32 -2 10 C-2.66 10 -3.32 10 -4 10 C-4 10.66 -4 11.32 -4 12 C-4.66 12 -5.32 12 -6 12 C-6 12.66 -6 13.32 -6 14 C-6.66 14 -7.32 14 -8 14 C-9.61949011 11.42786866 -10.04408751 10.32330841 -9.625 7.25 C-9.41875 6.5075 -9.2125 5.765 -9 5 C-8.030625 4.87625 -7.06125 4.7525 -6.0625 4.625 C-5.051875 4.41875 -4.04125 4.2125 -3 4 C-2.67 3.34 -2.34 2.68 -2 2 C-1.34 1.34 -0.68 0.68 0 0 Z " fill="#F58738" transform="translate(299,341)"/>
<path d="M0 0 C-1.28062485 1.7074998 -2.61767557 3.37373596 -4 5 C-4.66 5 -5.32 5 -6 5 C-6 5.66 -6 6.32 -6 7 C-6.66 7 -7.32 7 -8 7 C-8 7.66 -8 8.32 -8 9 C-8.66 9 -9.32 9 -10 9 C-10 9.66 -10 10.32 -10 11 C-10.66 11 -11.32 11 -12 11 C-12.2475 11.598125 -12.495 12.19625 -12.75 12.8125 C-14.16370012 15.28647521 -15.65055383 16.43370255 -18 18 C-18.24038873 15.11533524 -18.18152386 13.36304771 -16.875 10.75 C-14.38414277 8.42519992 -12.33270475 8.29624042 -9 8 C-9.33 5.69 -9.66 3.38 -10 1 C-6.78548731 -0.60725635 -3.56387464 -0.05748185 0 0 Z " fill="#F48E47" transform="translate(430,217)"/>
<path d="M0 0 C0.66 0 1.32 0 2 0 C2 0.66 2 1.32 2 2 C2.66 2 3.32 2 4 2 C4 2.66 4 3.32 4 4 C3.34 4 2.68 4 2 4 C2 4.66 2 5.32 2 6 C1.34 6 0.68 6 0 6 C-0.268125 6.598125 -0.53625 7.19625 -0.8125 7.8125 C-1.99917406 9.99847854 -3.09599113 11.41332594 -5 13 C-5.66 13 -6.32 13 -7 13 C-7 13.66 -7 14.32 -7 15 C-7.66 15 -8.32 15 -9 15 C-9 15.66 -9 16.32 -9 17 C-9.66 17 -10.32 17 -11 17 C-11 17.66 -11 18.32 -11 19 C-11.66 19 -12.32 19 -13 19 C-13.33 19.66 -13.66 20.32 -14 21 C-14 20.34 -14 19.68 -14 19 C-14.66 18.67 -15.32 18.34 -16 18 C-13 16 -13 16 -10 16 C-10 14.35 -10 12.7 -10 11 C-8.68 10.67 -7.36 10.34 -6 10 C-5.67 8.02 -5.34 6.04 -5 4 C-3.02 4 -1.04 4 1 4 C0.67 2.68 0.34 1.36 0 0 Z " fill="#F3904B" transform="translate(444,196)"/>
<path d="M0 0 C0.66 0 1.32 0 2 0 C1.67 1.32 1.34 2.64 1 4 C0.34 4 -0.32 4 -1 4 C-1.14308594 4.87591797 -1.14308594 4.87591797 -1.2890625 5.76953125 C-2.15294231 8.47983548 -3.3454587 9.71362123 -5.375 11.6875 C-5.98085938 12.28949219 -6.58671875 12.89148438 -7.2109375 13.51171875 C-9 15 -9 15 -12 16 C-12.66 16.66 -13.32 17.32 -14 18 C-16 20 -16 20 -19 21 C-19 20.34 -19 19.68 -19 19 C-18.34 19 -17.68 19 -17 19 C-17 18.34 -17 17.68 -17 17 C-16.34 17 -15.68 17 -15 17 C-15 16.34 -15 15.68 -15 15 C-14.34 15 -13.68 15 -13 15 C-13 14.34 -13 13.68 -13 13 C-12.34 13 -11.68 13 -11 13 C-11 12.34 -11 11.68 -11 11 C-8.625 8.375 -8.625 8.375 -6 6 C-5.34 6 -4.68 6 -4 6 C-4 5.34 -4 4.68 -4 4 C-3.34 4 -2.68 4 -2 4 C-2 3.34 -2 2.68 -2 2 C-1.34 2 -0.68 2 0 2 C0 1.34 0 0.68 0 0 Z " fill="#EF9756" transform="translate(54,272)"/>
<path d="M0 0 C-0.33 0.66 -0.66 1.32 -1 2 C-1.9590625 2.2165625 -1.9590625 2.2165625 -2.9375 2.4375 C-5.38210855 2.86165035 -5.38210855 2.86165035 -7 6 C-7.99 6.33 -8.98 6.66 -10 7 C-10.433125 8.2375 -10.433125 8.2375 -10.875 9.5 C-11.431875 10.7375 -11.431875 10.7375 -12 12 C-13.66500443 12.34153937 -15.33178677 12.67449498 -17 13 C-18.01866229 14.65532623 -19.01810813 16.32260138 -20 18 C-22.6875 19.3125 -22.6875 19.3125 -25 20 C-25 19.34 -25 18.68 -25 18 C-24.34 18 -23.68 18 -23 18 C-23 17.34 -23 16.68 -23 16 C-22.34 16 -21.68 16 -21 16 C-20.773125 15.443125 -20.54625 14.88625 -20.3125 14.3125 C-18.62449964 11.33840412 -16.53323483 9.27991135 -14 7 C-13.34 7 -12.68 7 -12 7 C-12 6.34 -12 5.68 -12 5 C-11.34 5 -10.68 5 -10 5 C-10 4.34 -10 3.68 -10 3 C-9.34 3 -8.68 3 -8 3 C-8 2.34 -8 1.68 -8 1 C-4.93251126 -0.86240388 -3.40254489 -1.2151946 0 0 Z " fill="#EE9E5F" transform="translate(411,271)"/>
<path d="M0 0 C2.31 0.33 4.62 0.66 7 1 C6.01 1.495 6.01 1.495 5 2 C5 2.66 5 3.32 5 4 C4.34 4 3.68 4 3 4 C3 4.66 3 5.32 3 6 C2.34 6 1.68 6 1 6 C0.731875 6.598125 0.46375 7.19625 0.1875 7.8125 C-0.99917406 9.99847854 -2.09599113 11.41332594 -4 13 C-4.66 13 -5.32 13 -6 13 C-6 11.02 -6 9.04 -6 7 C-5.071875 6.6596875 -5.071875 6.6596875 -4.125 6.3125 C-1.38589791 4.62070165 -0.94975528 3.00755839 0 0 Z " fill="#F58A45" transform="translate(458,181)"/>
<path d="M0 0 C0.66 0.33 1.32 0.66 2 1 C-1.88755006 5.65560706 -5.82228717 9.92535196 -10.51953125 13.7734375 C-12.13642903 15.07417222 -12.13642903 15.07417222 -14 17 C-14 15.02 -14 13.04 -14 11 C-13.01 11.33 -12.02 11.66 -11 12 C-11 11.01 -11 10.02 -11 9 C-10.01 9 -9.02 9 -8 9 C-8.33 7.35 -8.66 5.7 -9 4 C-6.35001226 2.58036371 -3.91349184 1.70325665 -1 1 C-0.67 0.67 -0.34 0.34 0 0 Z " fill="#F09A5C" transform="translate(290,176)"/>
<path d="M0 0 C0.66 1.32 1.32 2.64 2 4 C-2.625 8.875 -2.625 8.875 -6 10 C-6.825 10.825 -7.65 11.65 -8.5 12.5 C-11 15 -11 15 -14 16 C-14.73323796 18.01508358 -14.73323796 18.01508358 -15 20 C-16.32 20.33 -17.64 20.66 -19 21 C-19 20.34 -19 19.68 -19 19 C-18.34 19 -17.68 19 -17 19 C-17 18.34 -17 17.68 -17 17 C-16.34 17 -15.68 17 -15 17 C-15 16.34 -15 15.68 -15 15 C-14.34 15 -13.68 15 -13 15 C-13 14.34 -13 13.68 -13 13 C-12.34 13 -11.68 13 -11 13 C-11 12.34 -11 11.68 -11 11 C-9.625 9.375 -9.625 9.375 -8 8 C-7.34 8 -6.68 8 -6 8 C-6 7.34 -6 6.68 -6 6 C-5.34 6 -4.68 6 -4 6 C-4 5.34 -4 4.68 -4 4 C-3.34 4 -2.68 4 -2 4 C-2 3.34 -2 2.68 -2 2 C-1.34 2 -0.68 2 0 2 C0 1.34 0 0.68 0 0 Z " fill="#EF9A5C" transform="translate(82,244)"/>
<path d="M0 0 C0.66 1.65 1.32 3.3 2 5 C1.34 5 0.68 5 0 5 C-0.33 5.99 -0.66 6.98 -1 8 C-1.99 7.67 -2.98 7.34 -4 7 C-3.67 6.01 -3.34 5.02 -3 4 C-7.14670039 6.37629089 -7.14670039 6.37629089 -10 10 C-11.32 9.67 -12.64 9.34 -14 9 C-5.6 0 -5.6 0 0 0 Z " fill="#F6812E" transform="translate(238,272)"/>
<path d="M0 0 C4.554787 3.80014774 8.95279259 7.65665546 13 12 C13 12.66 13 13.32 13 14 C13.99 14.33 14.98 14.66 16 15 C16 15.33 16 15.66 16 16 C14.02 16 12.04 16 10 16 C10 15.01 10 14.02 10 13 C9.34 13 8.68 13 8 13 C7.67 12.01 7.34 11.02 7 10 C6.34 9.67 5.68 9.34 5 9 C5 8.01 5 7.02 5 6 C3.35 5.67 1.7 5.34 0 5 C0 3.35 0 1.7 0 0 Z " fill="#F1AF70" transform="translate(456,295)"/>
<path d="M0 0 C0.66 0 1.32 0 2 0 C1.67 1.98 1.34 3.96 1 6 C0.34 6 -0.32 6 -1 6 C-0.88506243 7.89646998 -0.75760358 9.79218332 -0.625 11.6875 C-0.55539063 12.74324219 -0.48578125 13.79898437 -0.4140625 14.88671875 C-0.01023766 17.92302438 0.85161532 20.18505706 2 23 C2 24.32 2 25.64 2 27 C1.34 27 0.68 27 0 27 C0 25.68 0 24.36 0 23 C-0.66 23 -1.32 23 -2 23 C-3.51138285 9.41797841 -3.51138285 9.41797841 -1 3 C-0.67 2.01 -0.34 1.02 0 0 Z " fill="#ED9F66" transform="translate(190,315)"/>
<path d="M0 0 C1.32 0.33 2.64 0.66 4 1 C2.38405168 3.04119788 0.7143618 5.04072937 -1 7 C-1.66 7 -2.32 7 -3 7 C-3 7.66 -3 8.32 -3 9 C-4.75 10.5078125 -4.75 10.5078125 -7 12.125 C-7.7425 12.66382813 -8.485 13.20265625 -9.25 13.7578125 C-9.8275 14.16773438 -10.405 14.57765625 -11 15 C-11 13.02 -11 11.04 -11 9 C-9.68 9.33 -8.36 9.66 -7 10 C-6.67 8.68 -6.34 7.36 -6 6 C-5.34 6 -4.68 6 -4 6 C-3.67 5.01 -3.34 4.02 -3 3 C-2.34 3.33 -1.68 3.66 -1 4 C-0.67 2.68 -0.34 1.36 0 0 Z " fill="#F08A43" transform="translate(460,353)"/>
<path d="M0 0 C0 3.61537605 -0.89229241 5.11165997 -3 8 C-3.99 8 -4.98 8 -6 8 C-6 9.98 -6 11.96 -6 14 C-8.98241547 14.77321882 -11.97580475 15.41196203 -15 16 C-10.30233025 10.33870569 -5.25276628 5.14771096 0 0 Z " fill="#F0A168" transform="translate(218,287)"/>
<path d="M0 0 C0.33 0 0.66 0 1 0 C1 1.98 1 3.96 1 6 C0.34 6 -0.32 6 -1 6 C-1.19406478 7.64507218 -1.38007935 9.29109594 -1.5625 10.9375 C-1.66691406 11.85402344 -1.77132813 12.77054687 -1.87890625 13.71484375 C-1.91886719 14.46894531 -1.95882813 15.22304688 -2 16 C-1.67 16.33 -1.34 16.66 -1 17 C-0.85884839 19.67058851 -0.95752893 22.32432238 -1 25 C-0.34 25 0.32 25 1 25 C0.67 26.32 0.34 27.64 0 29 C-3.50140921 20.93153529 -5.79361465 14.19982111 -2.5625 5.5625 C-1.74252651 3.69296043 -0.91296601 1.82593203 0 0 Z " fill="#F2B785" transform="translate(362,314)"/>
<path d="M0 0 C2 1 2 1 4 4 C4.99 3.67 5.98 3.34 7 3 C7 3.66 7 4.32 7 5 C6.34 5 5.68 5 5 5 C5.33 5.66 5.66 6.32 6 7 C6.99 7 7.98 7 9 7 C10.23921302 9.97411124 11.30058404 12.85262818 12 16 C11.34 15.67 10.68 15.34 10 15 C10 14.34 10 13.68 10 13 C9.34 13 8.68 13 8 13 C8 12.34 8 11.68 8 11 C7.34 11 6.68 11 6 11 C6 10.34 6 9.68 6 9 C5.34 9 4.68 9 4 9 C4 8.34 4 7.68 4 7 C3.34 7 2.68 7 2 7 C2 6.34 2 5.68 2 5 C1.0409375 4.566875 1.0409375 4.566875 0.0625 4.125 C-2 3 -2 3 -3 1 C-2.01 0.67 -1.02 0.34 0 0 Z " fill="#EF934F" transform="translate(210,357)"/>
<path d="M0 0 C5.43873518 -0.37944664 5.43873518 -0.37944664 8.21875 1.5 C11.78735514 3.42464097 14.87345055 3.33450759 18.8125 3.1875 C19.50537109 3.17396484 20.19824219 3.16042969 20.91210938 3.14648438 C22.60841265 3.11138845 24.30431136 3.05758943 26 3 C22.70713515 6.29286485 18.50453042 5.94851965 14 6 C8.78185733 5.40926687 4.27473612 4.17157841 0 1 C0 0.67 0 0.34 0 0 Z " fill="#EDAC79" transform="translate(54,383)"/>
<path d="M0 0 C0.66 0 1.32 0 2 0 C0.51643192 5.68701095 0.51643192 5.68701095 -2.0625 7.25 C-3.0215625 7.62125 -3.0215625 7.62125 -4 8 C-4.33 8.66 -4.66 9.32 -5 10 C-5.99 10 -6.98 10 -8 10 C-8.33 11.98 -8.66 13.96 -9 16 C-9.66 16 -10.32 16 -11 16 C-11.33 17.32 -11.66 18.64 -12 20 C-12.75 18.4375 -12.75 18.4375 -13 16 C-10.6969297 11.12812052 -8.11068586 7.56980615 -4 4 C-3.34 4 -2.68 4 -2 4 C-2 3.34 -2 2.68 -2 2 C-1.34 2 -0.68 2 0 2 C0 1.34 0 0.68 0 0 Z " fill="#EEA164" transform="translate(24,302)"/>
<path d="M0 0 C2.31 0.33 4.62 0.66 7 1 C3.69984002 5.13937592 0.82675589 8.58662205 -4 11 C-4.36898396 6.44919786 -4.36898396 6.44919786 -2.5625 4.25 C-2.046875 3.8375 -1.53125 3.425 -1 3 C-0.67 2.67 -0.34 2.34 0 2 C0 1.34 0 0.68 0 0 Z " fill="#F19858" transform="translate(235,226)"/>
<path d="M0 0 C0.33 0.66 0.66 1.32 1 2 C0.34 2 -0.32 2 -1 2 C-1.226875 2.70125 -1.45375 3.4025 -1.6875 4.125 C-3.89843279 8.96799564 -6.3319399 12.30759769 -11.3125 14.375 C-12.199375 14.58125 -13.08625 14.7875 -14 15 C-13.34 13.68 -12.68 12.36 -12 11 C-11.34 11 -10.68 11 -10 11 C-10 10.34 -10 9.68 -10 9 C-9.34 9 -8.68 9 -8 9 C-8 8.34 -8 7.68 -8 7 C-7.34 7 -6.68 7 -6 7 C-6 6.34 -6 5.68 -6 5 C-5.34 5 -4.68 5 -4 5 C-4 4.34 -4 3.68 -4 3 C-3.34 3 -2.68 3 -2 3 C-2 2.34 -2 1.68 -2 1 C-1.34 0.67 -0.68 0.34 0 0 Z " fill="#EE9E60" transform="translate(129,198)"/>
<path d="M0 0 C2.50411413 3.7561712 2.06898772 5.27948163 1.4921875 9.5703125 C0.74570504 13.2553291 -0.55068688 16.53425124 -2 20 C-2.66 20 -3.32 20 -4 20 C-4 20.66 -4 21.32 -4 22 C-4.66 22 -5.32 22 -6 22 C-6.33 22.66 -6.66 23.32 -7 24 C-7 22.02 -7 20.04 -7 18 C-5.68 18 -4.36 18 -3 18 C-3.061875 16.824375 -3.061875 16.824375 -3.125 15.625 C-3 13 -3 13 -1 11 C-0.53709779 8.33757179 -0.53709779 8.33757179 -0.375 5.375 C-0.26285156 3.87066406 -0.26285156 3.87066406 -0.1484375 2.3359375 C-0.09945313 1.56507813 -0.05046875 0.79421875 0 0 Z " fill="#F0A772" transform="translate(478,152)"/>
<path d="M0 0 C0.33 0.66 0.66 1.32 1 2 C1.66 2 2.32 2 3 2 C5.26985571 6.54875468 5.33382226 10.59441393 5.3125 15.5625 C5.32861328 16.31724609 5.34472656 17.07199219 5.36132812 17.84960938 C5.36433215 21.2591802 5.25777021 23.57126652 3.48046875 26.52734375 C2.99191406 27.01332031 2.50335938 27.49929688 2 28 C2 26.35 2 24.7 2 23 C2.66 23 3.32 23 4 23 C3.91239411 20.93673023 3.80420727 18.8743284 3.6875 16.8125 C3.62949219 15.66394531 3.57148438 14.51539063 3.51171875 13.33203125 C2.97310408 9.82486858 1.91482691 7.93335187 0 5 C-0.1875 2.1875 -0.1875 2.1875 0 0 Z " fill="#EEA160" transform="translate(473,313)"/>
<path d="M0 0 C0.640625 1.83984375 0.640625 1.83984375 1 4 C-1.25 6.5625 -1.25 6.5625 -4 9 C-4.515625 9.598125 -5.03125 10.19625 -5.5625 10.8125 C-7 12 -7 12 -11 12 C-11.33 12.99 -11.66 13.98 -12 15 C-12.66 14.67 -13.32 14.34 -14 14 C-9.33333333 9.33333333 -4.66666667 4.66666667 0 0 Z " fill="#F1A065" transform="translate(389,116)"/>
<path d="M0 0 C0.66 0 1.32 0 2 0 C2 0.66 2 1.32 2 2 C2.99 2.33 3.98 2.66 5 3 C3.625 4.5 3.625 4.5 2 6 C1.34 6 0.68 6 0 6 C0 6.66 0 7.32 0 8 C-0.66 8 -1.32 8 -2 8 C-2 8.66 -2 9.32 -2 10 C-2.66 10 -3.32 10 -4 10 C-4.33 8.35 -4.66 6.7 -5 5 C-4.01 4.67 -3.02 4.34 -2 4 C-1.67 3.01 -1.34 2.02 -1 1 C-0.67 0.67 -0.34 0.34 0 0 Z " fill="#F59251" transform="translate(284,356)"/>
<path d="M0 0 C0.33 1.32 0.66 2.64 1 4 C1.66 4 2.32 4 3 4 C3.33 3.01 3.66 2.02 4 1 C4.66 2.32 5.32 3.64 6 5 C5.34 5 4.68 5 4 5 C4.474375 5.4125 4.94875 5.825 5.4375 6.25 C7.16266518 8.182185 7.56584875 9.48192275 8 12 C7.34 12 6.68 12 6 12 C6 11.34 6 10.68 6 10 C5.34 10 4.68 10 4 10 C4 9.34 4 8.68 4 8 C3.360625 7.731875 2.72125 7.46375 2.0625 7.1875 C0 6 0 6 -1 3 C-1.66 3 -2.32 3 -3 3 C-3 2.34 -3 1.68 -3 1 C-2.01 0.67 -1.02 0.34 0 0 Z " fill="#F19351" transform="translate(195,341)"/>
<path d="M0 0 C0 4.15004757 -1.8129603 6.4738061 -4.3125 9.6875 C-6.6658951 11.51791841 -9.15980084 12.17949802 -12 13 C-12 12.34 -12 11.68 -12 11 C-11.34 11 -10.68 11 -10 11 C-10 10.34 -10 9.68 -10 9 C-9.34 9 -8.68 9 -8 9 C-8 8.34 -8 7.68 -8 7 C-7.34 7 -6.68 7 -6 7 C-6 6.34 -6 5.68 -6 5 C-5.34 5 -4.68 5 -4 5 C-4 4.34 -4 3.68 -4 3 C-2 1.375 -2 1.375 0 0 Z " fill="#EE9A5D" transform="translate(213,114)"/>
<path d="M0 0 C1.65 0 3.3 0 5 0 C4.01 0.495 4.01 0.495 3 1 C3 1.66 3 2.32 3 3 C2.34 3 1.68 3 1 3 C1 3.66 1 4.32 1 5 C0.34 5 -0.32 5 -1 5 C-1 5.66 -1 6.32 -1 7 C-1.66 7 -2.32 7 -3 7 C-3 7.66 -3 8.32 -3 9 C-3.66 9 -4.32 9 -5 9 C-5 9.66 -5 10.32 -5 11 C-5.99 11.33 -6.98 11.66 -8 12 C-8 11.34 -8 10.68 -8 10 C-7.34 10 -6.68 10 -6 10 C-6 9.34 -6 8.68 -6 8 C-6.66 7.67 -7.32 7.34 -8 7 C-6.35 6.67 -4.7 6.34 -3 6 C-3 5.01 -3 4.02 -3 3 C-2.34 3 -1.68 3 -1 3 C-0.67 2.01 -0.34 1.02 0 0 Z " fill="#EF9151" transform="translate(268,374)"/>
<path d="M0 0 C0.33 1.32 0.66 2.64 1 4 C0.01 4 -0.98 4 -2 4 C-2.2475 4.78375 -2.495 5.5675 -2.75 6.375 C-4.20924503 9.43941457 -5.05014956 9.61725761 -8 11 C-9.26804566 13.0335948 -9.26804566 13.0335948 -10 15 C-11.32 14.67 -12.64 14.34 -14 14 C-9.38 9.38 -4.76 4.76 0 0 Z " fill="#F09D64" transform="translate(338,167)"/>
<path d="M0 0 C1.32 0 2.64 0 4 0 C4 0.66 4 1.32 4 2 C3.34 2 2.68 2 2 2 C2 2.66 2 3.32 2 4 C1.34 4 0.68 4 0 4 C0 4.66 0 5.32 0 6 C-0.66 6 -1.32 6 -2 6 C-2.28875 6.639375 -2.5775 7.27875 -2.875 7.9375 C-4 10 -4 10 -6 11 C-6.33 9.02 -6.66 7.04 -7 5 C-6.34 4.67 -5.68 4.34 -5 4 C-4.34 4.33 -3.68 4.66 -3 5 C-2.67 4.01 -2.34 3.02 -2 2 C-1.34 1.34 -0.68 0.68 0 0 Z " fill="#F3914F" transform="translate(364,278)"/>
<path d="M0 0 C0.66 0 1.32 0 2 0 C2.33 1.32 2.66 2.64 3 4 C1.71283353 5.00578589 0.42011342 6.00446798 -0.875 7 C-1.95394531 7.8353125 -1.95394531 7.8353125 -3.0546875 8.6875 C-5 10 -5 10 -7 10 C-6.39816251 7.97954558 -5.72693904 5.97888961 -5 4 C-4.34 3.67 -3.68 3.34 -3 3 C-2.34 3.33 -1.68 3.66 -1 4 C-0.67 2.68 -0.34 1.36 0 0 Z " fill="#EF9653" transform="translate(87,376)"/>
<path d="M0 0 C0.33 0.66 0.66 1.32 1 2 C1.66 2.33 2.32 2.66 3 3 C1.37660195 4.70884005 -0.29319053 6.37446717 -2 8 C-2.66 8 -3.32 8 -4 8 C-4.66 9.32 -5.32 10.64 -6 12 C-6.66 11.01 -7.32 10.02 -8 9 C-7.125 6.3125 -7.125 6.3125 -6 4 C-5.67 4.66 -5.34 5.32 -5 6 C-4.01 6 -3.02 6 -2 6 C-2 4.68 -2 3.36 -2 2 C-1.34 2 -0.68 2 0 2 C0 1.34 0 0.68 0 0 Z " fill="#F29E63" transform="translate(137,327)"/>
<path d="M0 0 C-0.93274109 1.12894876 -1.87140122 2.25300876 -2.8125 3.375 C-3.33457031 4.00148438 -3.85664063 4.62796875 -4.39453125 5.2734375 C-6 7 -6 7 -9 9 C-9.36 2.64 -9.36 2.64 -7.875 0 C-5.06863762 -1.49672661 -2.99840718 -0.73294398 0 0 Z " fill="#F29A5B" transform="translate(194,275)"/>
<path d="M0 0 C1.98 0 3.96 0 6 0 C4.625 2 4.625 2 3 4 C2.34 4 1.68 4 1 4 C0.71125 4.639375 0.4225 5.27875 0.125 5.9375 C-1 8 -1 8 -3 9 C-3.66 7.35 -4.32 5.7 -5 4 C-4.01 3.01 -3.02 2.02 -2 1 C-2 1.66 -2 2.32 -2 3 C-1.34 3 -0.68 3 0 3 C0 2.01 0 1.02 0 0 Z " fill="#F49757" transform="translate(214,249)"/>
<path d="M0 0 C0.66 0.33 1.32 0.66 2 1 C1.1875 2.9375 1.1875 2.9375 0 5 C-0.99 5.33 -1.98 5.66 -3 6 C-3.45375 6.78375 -3.9075 7.5675 -4.375 8.375 C-6.24684239 11.3987454 -7.81483327 12.4870458 -11 14 C-11.99 14 -12.98 14 -14 14 C-9.38 9.38 -4.76 4.76 0 0 Z " fill="#F0A56F" transform="translate(404,101)"/>
<path d="M0 0 C0.66 0 1.32 0 2 0 C1.34 1.32 0.68 2.64 0 4 C-0.66 4 -1.32 4 -2 4 C-2 4.66 -2 5.32 -2 6 C-2.66 6 -3.32 6 -4 6 C-4.66 7.32 -5.32 8.64 -6 10 C-7.42944945 7.64561267 -8.08661261 6.51967567 -7.625 3.75 C-7.41875 3.1725 -7.2125 2.595 -7 2 C-6.21625 2.04125 -5.4325 2.0825 -4.625 2.125 C-1.83883881 2.28728734 -1.83883881 2.28728734 0 0 Z " fill="#F19E64" transform="translate(178,288)"/>
<path d="M0 0 C6.19339263 1.29029013 10.15289443 3.9964167 15 8 C12 9 12 9 9.875 8.1875 C8 7 8 7 7 5 C4.97536745 4.34786708 4.97536745 4.34786708 3 4 C3 3.34 3 2.68 3 2 C2.01 1.67 1.02 1.34 0 1 C0 0.67 0 0.34 0 0 Z " fill="#EF9F60" transform="translate(424,269)"/>
<path d="M0 0 C0.33 0.99 0.66 1.98 1 3 C0.360625 3.226875 -0.27875 3.45375 -0.9375 3.6875 C-1.618125 4.120625 -2.29875 4.55375 -3 5 C-3.34153937 6.66500443 -3.67449498 8.33178677 -4 10 C-6.53083271 12.44647162 -7.4252927 13 -11 13 C-11 11 -11 11 -8.625 8.375 C-6 6 -6 6 -4 6 C-4 5.34 -4 4.68 -4 4 C-3.34 4 -2.68 4 -2 4 C-2 3.34 -2 2.68 -2 2 C-1.34 2 -0.68 2 0 2 C0 1.34 0 0.68 0 0 Z " fill="#EDA063" transform="translate(95,231)"/>
<path d="M0 0 C3.76687864 0 4.91190305 0.23537317 8 2 C7.34 2 6.68 2 6 2 C5.7525 2.598125 5.505 3.19625 5.25 3.8125 C3.83629988 6.28647521 2.34944617 7.43370255 0 9 C0 6.03 0 3.06 0 0 Z " fill="#F5954D" transform="translate(341,297)"/>
<path d="M0 0 C-1.65 0.33 -3.3 0.66 -5 1 C-5 1.99 -5 2.98 -5 4 C-8.2690159 7.1782099 -9.32165993 8 -14 8 C-14 7.34 -14 6.68 -14 6 C-13.34 6 -12.68 6 -12 6 C-12 5.34 -12 4.68 -12 4 C-4 -2 -4 -2 0 0 Z " fill="#ED965D" transform="translate(241,93)"/>
<path d="M0 0 C1.65 0.33 3.3 0.66 5 1 C5 1.66 5 2.32 5 3 C4.34 3 3.68 3 3 3 C2.731875 3.61875 2.46375 4.2375 2.1875 4.875 C1 7 1 7 -2 9 C-2.25 3.375 -2.25 3.375 0 0 Z " fill="#F39346" transform="translate(275,365)"/>
<path d="M0 0 C0.66 0 1.32 0 2 0 C2 0.66 2 1.32 2 2 C2.99 2.33 3.98 2.66 5 3 C3.625 4.5 3.625 4.5 2 6 C1.34 6 0.68 6 0 6 C0 6.66 0 7.32 0 8 C-0.66 8 -1.32 8 -2 8 C-2 8.66 -2 9.32 -2 10 C-2.66 10 -3.32 10 -4 10 C-4 9.01 -4 8.02 -4 7 C-3.34 7 -2.68 7 -2 7 C-1.855625 6.030625 -1.71125 5.06125 -1.5625 4.0625 C-1 1 -1 1 0 0 Z " fill="#F3924A" transform="translate(396,244)"/>
<path d="M0 0 C2.31 0 4.62 0 7 0 C5.71480435 2.86697492 4.42870746 4.97607712 2 7 C1.34 7 0.68 7 0 7 C-0.33 7.66 -0.66 8.32 -1 9 C-1 8.01 -1 7.02 -1 6 C-1.66 5.67 -2.32 5.34 -3 5 C-1.35 4.67 0.3 4.34 2 4 C2 3.34 2 2.68 2 2 C1.34 2 0.68 2 0 2 C0 1.34 0 0.68 0 0 Z " fill="#F39855" transform="translate(327,312)"/>
<path d="M0 0 C0.33 1.32 0.66 2.64 1 4 C-0.07543783 4.98783194 -1.16073217 5.96493943 -2.25 6.9375 C-3.15492188 7.75541016 -3.15492188 7.75541016 -4.078125 8.58984375 C-6.08467305 10.06212799 -7.57002449 10.57529189 -10 11 C-6.79239749 7.19364503 -3.59253891 3.45436433 0 0 Z " fill="#F19E63" transform="translate(202,303)"/>
<path d="M0 0 C0.33 0.99 0.66 1.98 1 3 C-0.2065625 4.175625 -0.2065625 4.175625 -1.4375 5.375 C-3.98690417 7.71982856 -3.98690417 7.71982856 -5 10 C-7.5625 10.625 -7.5625 10.625 -10 11 C-10 10.34 -10 9.68 -10 9 C-9.34 9 -8.68 9 -8 9 C-8 8.34 -8 7.68 -8 7 C-7.34 7 -6.68 7 -6 7 C-6 6.34 -6 5.68 -6 5 C-5.34 5 -4.68 5 -4 5 C-4 4.34 -4 3.68 -4 3 C-3.34 3 -2.68 3 -2 3 C-2 2.34 -2 1.68 -2 1 C-1.34 0.67 -0.68 0.34 0 0 Z " fill="#EDA36A" transform="translate(114,213)"/>
<path d="M0 0 C-0.99 0.495 -0.99 0.495 -2 1 C-2.309375 1.66 -2.61875 2.32 -2.9375 3 C-4 5 -4 5 -7 6 C-7.33 6.66 -7.66 7.32 -8 8 C-8 6.35 -8 4.7 -8 3 C-7.34 2.67 -6.68 2.34 -6 2 C-6.33 1.34 -6.66 0.68 -7 0 C-4.3333581 -1.33332095 -2.83319697 -0.67102033 0 0 Z " fill="#F2A168" transform="translate(107,362)"/>
<path d="M0 0 C0 4.09939665 -1.52298101 5.78656995 -4 9 C-6.625 10.9375 -6.625 10.9375 -9 12 C-9.66 11.67 -10.32 11.34 -11 11 C-7.37 7.37 -3.74 3.74 0 0 Z " fill="#F0A36E" transform="translate(242,263)"/>
<path d="M0 0 C3.125 0.375 3.125 0.375 6 1 C4.625 3.5 4.625 3.5 3 6 C2.34 6 1.68 6 1 6 C0.67 6.66 0.34 7.32 0 8 C-0.66 6.02 -1.32 4.04 -2 2 C-1.34 1.34 -0.68 0.68 0 0 Z " fill="#F19755" transform="translate(203,258)"/>
<path d="M0 0 C0 3.68553144 -0.8522582 5.03759752 -3 8 C-5.5625 9.875 -5.5625 9.875 -8 11 C-8.66 10.67 -9.32 10.34 -10 10 C-6.7 6.7 -3.4 3.4 0 0 Z " fill="#F2A067" transform="translate(298,207)"/>
<path d="M0 0 C0.33 1.32 0.66 2.64 1 4 C0.34 4.66 -0.32 5.32 -1 6 C-1.99 6 -2.98 6 -4 6 C-3.67 6.99 -3.34 7.98 -3 9 C-6.75 10.125 -6.75 10.125 -9 9 C-6.03 6.03 -3.06 3.06 0 0 Z " fill="#F19D62" transform="translate(367,138)"/>
<path d="M0 0 C0.33 0.66 0.66 1.32 1 2 C-0.87577357 6.06417607 -2.93582393 8.12422643 -7 10 C-7.66 9.67 -8.32 9.34 -9 9 C-6.03 6.03 -3.06 3.06 0 0 Z " fill="#F29F62" transform="translate(265,240)"/>
<path d="M0 0 C0.66 0 1.32 0 2 0 C-0.04109589 7.06533193 -0.04109589 7.06533193 -3 9 C-5.1875 8.6875 -5.1875 8.6875 -7 8 C-6.67 7.34 -6.34 6.68 -6 6 C-5.34 6 -4.68 6 -4 6 C-4 5.34 -4 4.68 -4 4 C-3.34 4 -2.68 4 -2 4 C-2 3.34 -2 2.68 -2 2 C-1.34 2 -0.68 2 0 2 C0 1.34 0 0.68 0 0 Z " fill="#EF9C5B" transform="translate(164,162)"/>
<path d="M0 0 C3.5371438 0.56132934 4.99261679 1.69557747 7.25 4.4375 C8.03117187 5.36369141 8.03117187 5.36369141 8.828125 6.30859375 C10 8 10 8 10 10 C9.34 10 8.68 10 8 10 C8 9.34 8 8.68 8 8 C7.34 8 6.68 8 6 8 C6 7.34 6 6.68 6 6 C5.34 6 4.68 6 4 6 C4 5.34 4 4.68 4 4 C3.34 4 2.68 4 2 4 C2 3.34 2 2.68 2 2 C1.34 2 0.68 2 0 2 C0 1.34 0 0.68 0 0 Z " fill="#EEAB73" transform="translate(367,347)"/>
<path d="M0 0 C-0.90270193 3.69287153 -1.40491051 5.55368289 -4.5 7.875 C-7 9 -7 9 -9 9 C-9 8.34 -9 7.68 -9 7 C-8.34 7 -7.68 7 -7 7 C-7 6.34 -7 5.68 -7 5 C-2.47619048 0 -2.47619048 0 0 0 Z " fill="#ED9C5C" transform="translate(35,293)"/>
<path d="M0 0 C0.99 0.495 0.99 0.495 2 1 C2 1.66 2 2.32 2 3 C2.556875 3.20625 3.11375 3.4125 3.6875 3.625 C6.92501302 5.55000774 8.68231141 8.03850902 11 11 C8.6875 10.8125 8.6875 10.8125 6 10 C4.375 7.625 4.375 7.625 3 5 C2.443125 4.443125 1.88625 3.88625 1.3125 3.3125 C0.879375 2.879375 0.44625 2.44625 0 2 C0 1.34 0 0.68 0 0 Z " fill="#F0AD75" transform="translate(439,278)"/>
<path d="M0 0 C0.99 0.33 1.98 0.66 3 1 C3 2.98 3 4.96 3 7 C2.01 7.33 1.02 7.66 0 8 C-0.66 6.02 -1.32 4.04 -2 2 C-1.34 1.34 -0.68 0.68 0 0 Z " fill="#F68637" transform="translate(355,283)"/>
<path d="M0 0 C0.33 1.32 0.66 2.64 1 4 C-0.3125 5.75 -0.3125 5.75 -2 7 C-2.66 7 -3.32 7 -4 7 C-4 7.66 -4 8.32 -4 9 C-5.32 8.67 -6.64 8.34 -8 8 C-5.36 5.36 -2.72 2.72 0 0 Z " fill="#F19D60" transform="translate(251,254)"/>
<path d="M0 0 C0 2.62113708 -0.31292445 4.50935112 -1 7 C-2.32 7 -3.64 7 -5 7 C-5.33 7.99 -5.66 8.98 -6 10 C-8.0625 10.6875 -8.0625 10.6875 -10 11 C-6.79239749 7.19364503 -3.59253891 3.45436433 0 0 Z " fill="#F0A36A" transform="translate(357,148)"/>
<path d="M0 0 C0.99 0.33 1.98 0.66 3 1 C3 1.66 3 2.32 3 3 C3.66 3.33 4.32 3.66 5 4 C3.71034824 5.37562854 2.37310707 6.70766393 1 8 C0.34 8 -0.32 8 -1 8 C-1.625 5.6875 -1.625 5.6875 -2 3 C-1.34 2.01 -0.68 1.02 0 0 Z " fill="#F49250" transform="translate(244,217)"/>
<path d="M0 0 C1.32 0.33 2.64 0.66 4 1 C2.38405168 3.04119788 0.7143618 5.04072937 -1 7 C-1.66 7 -2.32 7 -3 7 C-3.33 7.66 -3.66 8.32 -4 9 C-4 7.02 -4 5.04 -4 3 C-3.01 3.33 -2.02 3.66 -1 4 C-0.67 2.68 -0.34 1.36 0 0 Z " fill="#EE9857" transform="translate(460,353)"/>
<path d="M0 0 C0.33 0.66 0.66 1.32 1 2 C2.65 2 4.3 2 6 2 C5.67 2.66 5.34 3.32 5 4 C4.34 4 3.68 4 3 4 C2.34 5.32 1.68 6.64 1 8 C-1 5 -1 5 -0.625 2.3125 C-0.41875 1.549375 -0.2125 0.78625 0 0 Z " fill="#F3A066" transform="translate(115,346)"/>
<path d="M0 0 C2.97 0.495 2.97 0.495 6 1 C4.68 2.65 3.36 4.3 2 6 C1.01 5.67 0.02 5.34 -1 5 C-0.67 3.35 -0.34 1.7 0 0 Z " fill="#F5964D" transform="translate(299,341)"/>
<path d="M0 0 C1.9375 0.3125 1.9375 0.3125 4 1 C4.33 1.99 4.66 2.98 5 4 C5.99 4.33 6.98 4.66 8 5 C8 5.33 8 5.66 8 6 C6.02 6 4.04 6 2 6 C2 5.01 2 4.02 2 3 C1.34 3 0.68 3 0 3 C0 2.01 0 1.02 0 0 Z " fill="#EE9A5E" transform="translate(464,305)"/>
<path d="M0 0 C0 3.70411834 -0.75301769 5.078923 -3 8 C-6.1875 9.3125 -6.1875 9.3125 -9 10 C-8.06409496 8.8944811 -7.12620142 7.79064547 -6.1875 6.6875 C-5.66542969 6.07261719 -5.14335937 5.45773438 -4.60546875 4.82421875 C-3.12827531 3.14575321 -1.59960869 1.56117966 0 0 Z " fill="#F0A36A" transform="translate(281,224)"/>
<path d="M0 0 C0.66 0 1.32 0 2 0 C0.83857315 4.35535069 -0.07699505 6.64619703 -4 9 C-3.67 6.69 -3.34 4.38 -3 2 C-2.01 2 -1.02 2 0 2 C0 1.34 0 0.68 0 0 Z " fill="#ED9659" transform="translate(303,160)"/>
<path d="M0 0 C-1.17403506 3.34148439 -2.15434834 5.81103718 -5 8 C-7.1875 8.6875 -7.1875 8.6875 -9 9 C-9 8.34 -9 7.68 -9 7 C-8.34 7 -7.68 7 -7 7 C-7 6.34 -7 5.68 -7 5 C-2.47619048 0 -2.47619048 0 0 0 Z " fill="#ED9D64" transform="translate(175,153)"/>
<path d="M0 0 C1.17219543 0.78345715 2.33763668 1.57702836 3.5 2.375 C4.47453125 3.03628906 4.47453125 3.03628906 5.46875 3.7109375 C5.9740625 4.13632813 6.479375 4.56171875 7 5 C7 5.66 7 6.32 7 7 C7.66 7 8.32 7 9 7 C9 7.66 9 8.32 9 9 C7.68 8.67 6.36 8.34 5 8 C5 7.34 5 6.68 5 6 C3.68 5.67 2.36 5.34 1 5 C0.67 3.35 0.34 1.7 0 0 Z " fill="#EEA470" transform="translate(443,112)"/>
<path d="M0 0 C1.65 0 3.3 0 5 0 C5.33 0.99 5.66 1.98 6 3 C6.515625 3.515625 7.03125 4.03125 7.5625 4.5625 C8.036875 5.036875 8.51125 5.51125 9 6 C9 6.66 9 7.32 9 8 C8.34 8 7.68 8 7 8 C7 7.34 7 6.68 7 6 C6.34 6 5.68 6 5 6 C5 5.34 5 4.68 5 4 C4.360625 3.71125 3.72125 3.4225 3.0625 3.125 C1 2 1 2 0 0 Z " fill="#F09C5D" transform="translate(222,373)"/>
<path d="M0 0 C6.81818182 1.96969697 6.81818182 1.96969697 9 5 C9 5.99 9 6.98 9 8 C8.34 8 7.68 8 7 8 C7 7.34 7 6.68 7 6 C6.34 6 5.68 6 5 6 C5 5.34 5 4.68 5 4 C4.34 4 3.68 4 3 4 C3 3.34 3 2.68 3 2 C2.01 1.67 1.02 1.34 0 1 C0 0.67 0 0.34 0 0 Z " fill="#F1AF7B" transform="translate(377,358)"/>
<path d="M0 0 C0.66 0.33 1.32 0.66 2 1 C0.625 3 0.625 3 -1 5 C-1.66 5 -2.32 5 -3 5 C-3.33 6.32 -3.66 7.64 -4 9 C-5.32 9.33 -6.64 9.66 -8 10 C-8 9.34 -8 8.68 -8 8 C-7.34 8 -6.68 8 -6 8 C-6 7.34 -6 6.68 -6 6 C-5.34 6 -4.68 6 -4 6 C-4 5.34 -4 4.68 -4 4 C-3.34 4 -2.68 4 -2 4 C-2 3.34 -2 2.68 -2 2 C-1.34 2 -0.68 2 0 2 C0 1.34 0 0.68 0 0 Z " fill="#EDAA74" transform="translate(71,255)"/>
<path d="M0 0 C0.33 1.32 0.66 2.64 1 4 C-0.32 4.33 -1.64 4.66 -3 5 C-3 5.99 -3 6.98 -3 8 C-4.65 8.33 -6.3 8.66 -8 9 C-7.04270084 7.87411986 -6.08412105 6.7493285 -5.125 5.625 C-4.59132813 4.99851563 -4.05765625 4.37203125 -3.5078125 3.7265625 C-2.38567993 2.44163349 -1.20628025 1.20628025 0 0 Z " fill="#EFA167" transform="translate(318,187)"/>
<path d="M0 0 C2.33944736 0.28730055 4.6739143 0.61936779 7 1 C6.01 1.495 6.01 1.495 5 2 C4.67 2.99 4.34 3.98 4 5 C3.34 5 2.68 5 2 5 C1.67 5.66 1.34 6.32 1 7 C1 5.35 1 3.7 1 2 C0.34 1.67 -0.32 1.34 -1 1 C-0.67 0.67 -0.34 0.34 0 0 Z " fill="#F09F64" transform="translate(123,338)"/>
<path d="M0 0 C0.33 0.66 0.66 1.32 1 2 C1.99 2 2.98 2 4 2 C4 2.66 4 3.32 4 4 C3.34 4 2.68 4 2 4 C2 4.66 2 5.32 2 6 C1.34 6 0.68 6 0 6 C0 6.66 0 7.32 0 8 C-0.66 8 -1.32 8 -2 8 C-2 7.01 -2 6.02 -2 5 C-1.34 5 -0.68 5 0 5 C0 4.34 0 3.68 0 3 C-0.66 2.67 -1.32 2.34 -2 2 C-1.34 1.34 -0.68 0.68 0 0 Z " fill="#F28F4C" transform="translate(377,263)"/>
<path d="M0 0 C0.33 0.66 0.66 1.32 1 2 C-0.125 4.5625 -0.125 4.5625 -2 7 C-4.6875 7.8125 -4.6875 7.8125 -7 8 C-7 7.34 -7 6.68 -7 6 C-6.34 6 -5.68 6 -5 6 C-5 5.34 -5 4.68 -5 4 C-4.34 4 -3.68 4 -3 4 C-3 3.34 -3 2.68 -3 2 C-2.01 1.34 -1.02 0.68 0 0 Z " fill="#F1A065" transform="translate(156,171)"/>
<path d="M0 0 C1.125 3.75 1.125 3.75 0 6 C-2.3140622 6.73075648 -4.64828869 7.40138258 -7 8 C-6.02133662 6.85373678 -5.04205413 5.70800212 -4.0625 4.5625 C-3.51722656 3.92441406 -2.97195313 3.28632813 -2.41015625 2.62890625 C-1.63204305 1.73008851 -0.84063472 0.84063472 0 0 Z " fill="#F29E63" transform="translate(346,159)"/>
<path d="M0 0 C5.75 2.625 5.75 2.625 8 6 C5.69 5.67 3.38 5.34 1 5 C1.33 4.01 1.66 3.02 2 2 C1.34 2 0.68 2 0 2 C0 1.34 0 0.68 0 0 Z " fill="#F29C5B" transform="translate(258,94)"/>
<path d="M0 0 C1.67542976 0.28604898 3.34385343 0.61781233 5 1 C3.63016497 4.16115776 3.0109362 4.9927092 0 7 C-0.38133299 5.0085944 -0.71325582 3.00720923 -1 1 C-0.67 0.67 -0.34 0.34 0 0 Z " fill="#F2A36E" transform="translate(108,354)"/>
<path d="M0 0 C0.33 0.66 0.66 1.32 1 2 C1.66 2 2.32 2 3 2 C3.33 4.64 3.66 7.28 4 10 C1 8 1 8 0.48828125 6.0546875 C0.32552083 4.03645833 0.16276042 2.01822917 0 0 Z " fill="#EE934E" transform="translate(473,313)"/>
<path d="M0 0 C0 3.67718093 -0.82184858 5.07076189 -3 8 C-5.6875 9.3125 -5.6875 9.3125 -8 10 C-8 9.34 -8 8.68 -8 8 C-7.34 8 -6.68 8 -6 8 C-6 7.34 -6 6.68 -6 6 C-5.34 6 -4.68 6 -4 6 C-3.71125 5.38125 -3.4225 4.7625 -3.125 4.125 C-2 2 -2 2 0 0 Z " fill="#F2B586" transform="translate(394,281)"/>
<path d="M0 0 C-1.32 1.65 -2.64 3.3 -4 5 C-4.99 4.67 -5.98 4.34 -7 4 C-7 3.01 -7 2.02 -7 1 C-4.53721199 -0.231394 -2.7204945 -0.07159196 0 0 Z " fill="#F49858" transform="translate(387,260)"/>
<path d="M0 0 C0 0.66 0 1.32 0 2 C0.66 2.33 1.32 2.66 2 3 C1.01 3.495 1.01 3.495 0 4 C-0.66 3.67 -1.32 3.34 -2 3 C-2 3.66 -2 4.32 -2 5 C-3.65 5.66 -5.3 6.32 -7 7 C-3.86206897 0 -3.86206897 0 0 0 Z " fill="#F48B45" transform="translate(288,121)"/>
<path d="M0 0 C0.66 0 1.32 0 2 0 C1.67 1.32 1.34 2.64 1 4 C0.34 4 -0.32 4 -1 4 C-1.33 4.99 -1.66 5.98 -2 7 C-4.0625 7.6875 -4.0625 7.6875 -6 8 C-6 7.34 -6 6.68 -6 6 C-5.34 6 -4.68 6 -4 6 C-4 5.34 -4 4.68 -4 4 C-3.34 4 -2.68 4 -2 4 C-2 3.34 -2 2.68 -2 2 C-1.34 2 -0.68 2 0 2 C0 1.34 0 0.68 0 0 Z " fill="#EFA166" transform="translate(222,104)"/>
<path d="M0 0 C4.31392226 0.4793247 6.16569547 1.7457985 9 5 C6.36 4.67 3.72 4.34 1 4 C0.67 2.68 0.34 1.36 0 0 Z " fill="#EFA26A" transform="translate(425,98)"/>
<path d="M0 0 C5.73842251 -0.20413361 10.60539047 -0.27141454 16 2 C16 2.33 16 2.66 16 3 C13.36 3 10.72 3 8 3 C8 2.34 8 1.68 8 1 C5.36 1 2.72 1 0 1 C0 0.67 0 0.34 0 0 Z " fill="#E7A36D" transform="translate(242,91)"/>
<path d="M0 0 C0.33 0 0.66 0 1 0 C1 1.98 1 3.96 1 6 C0.34 6 -0.32 6 -1 6 C-1.33 7.98 -1.66 9.96 -2 12 C-2.33 12 -2.66 12 -3 12 C-2.88541307 10.56163249 -2.75790884 9.12429034 -2.625 7.6875 C-2.55539062 6.88699219 -2.48578125 6.08648437 -2.4140625 5.26171875 C-2 3 -2 3 0 0 Z " fill="#EB9B62" transform="translate(362,314)"/>
<path d="M0 0 C2.02054804 1.64169528 4.02043058 3.30911778 6 5 C6 5.33 6 5.66 6 6 C4.02 6 2.04 6 0 6 C0 4.02 0 2.04 0 0 Z " fill="#F3A665" transform="translate(450,289)"/>
<path d="M0 0 C0.33 0.66 0.66 1.32 1 2 C2.65 2 4.3 2 6 2 C5.01 3.485 5.01 3.485 4 5 C3.34 5 2.68 5 2 5 C1.67 5.66 1.34 6.32 1 7 C1 6.01 1 5.02 1 4 C0.34 4 -0.32 4 -1 4 C-0.67 2.68 -0.34 1.36 0 0 Z " fill="#F2A166" transform="translate(195,266)"/>
<path d="M0 0 C0.33 0.99 0.66 1.98 1 3 C1.99 3.33 2.98 3.66 4 4 C3.360625 4.28875 2.72125 4.5775 2.0625 4.875 C-0.15206079 5.82823451 -0.15206079 5.82823451 -1 8 C-1.625 5.125 -1.625 5.125 -2 2 C-1.34 1.34 -0.68 0.68 0 0 Z " fill="#F4A063" transform="translate(93,369)"/>
<path d="M0 0 C0.66 1.32 1.32 2.64 2 4 C0.68 4.33 -0.64 4.66 -2 5 C-2 3.68 -2 2.36 -2 1 C-1.34 0.67 -0.68 0.34 0 0 Z M-4 5 C-3.01 5.33 -2.02 5.66 -1 6 C-1 6.99 -1 7.98 -1 9 C-1.66 9 -2.32 9 -3 9 C-3.33 7.68 -3.66 6.36 -4 5 Z " fill="#F48636" transform="translate(206,346)"/>
<path d="M0 0 C2 1 4 2 6 3 C6.625 5.5625 6.625 5.5625 7 8 C5.8274869 7.04882866 4.66212985 6.08882991 3.5 5.125 C2.8503125 4.59132813 2.200625 4.05765625 1.53125 3.5078125 C1.0259375 3.01023437 0.520625 2.51265625 0 2 C0 1.34 0 0.68 0 0 Z " fill="#EF9758" transform="translate(14,342)"/>
<path d="M0 0 C0.66 0 1.32 0 2 0 C0.9802693 3.77300358 0.34127338 4.80206144 -3.125 6.8125 C-4.07375 7.204375 -5.0225 7.59625 -6 8 C-6 7.34 -6 6.68 -6 6 C-5.34 6 -4.68 6 -4 6 C-4 5.34 -4 4.68 -4 4 C-3.34 4 -2.68 4 -2 4 C-2 3.34 -2 2.68 -2 2 C-1.34 2 -0.68 2 0 2 C0 1.34 0 0.68 0 0 Z " fill="#ECA271" transform="translate(41,285)"/>
<path d="M0 0 C0.66 0 1.32 0 2 0 C1.34 1.98 0.68 3.96 0 6 C-1.65 6.33 -3.3 6.66 -5 7 C-3.625 4.5 -3.625 4.5 -2 2 C-1.34 2 -0.68 2 0 2 C0 1.34 0 0.68 0 0 Z " fill="#ED9A5E" transform="translate(147,179)"/>
<path d="M0 0 C2 1 2 1 3.125 4.0625 C3.41375 5.031875 3.7025 6.00125 4 7 C3.34 7 2.68 7 2 7 C2 6.34 2 5.68 2 5 C1.0409375 4.566875 1.0409375 4.566875 0.0625 4.125 C-2 3 -2 3 -3 1 C-2.01 0.67 -1.02 0.34 0 0 Z " fill="#F19D5F" transform="translate(210,357)"/>
<path d="M0 0 C0.33 1.32 0.66 2.64 1 4 C-1.98241547 4.77321882 -4.97580475 5.41196203 -8 6 C-6.8125 4 -6.8125 4 -5 2 C-2.3125 1.75 -2.3125 1.75 0 2 C0 1.34 0 0.68 0 0 Z " fill="#F49250" transform="translate(211,297)"/>
<path d="M0 0 C-2.55068845 2.35448165 -3.71017358 2.98327924 -7.25 3.1875 C-8.1575 3.125625 -9.065 3.06375 -10 3 C-6.68152292 -0.06320961 -4.44849969 -0.3033068 0 0 Z " fill="#EEA16D" transform="translate(433,384)"/>
<path d="M0 0 C1.32 0 2.64 0 4 0 C4.66 1.98 5.32 3.96 6 6 C5.34 6 4.68 6 4 6 C4 5.34 4 4.68 4 4 C3.34 4 2.68 4 2 4 C2 3.34 2 2.68 2 2 C1.34 2 0.68 2 0 2 C0 1.34 0 0.68 0 0 Z " fill="#EFA974" transform="translate(395,375)"/>
<path d="M0 0 C0.66 0 1.32 0 2 0 C2.33 1.32 2.66 2.64 3 4 C1.02 4.99 1.02 4.99 -1 6 C-1.042721 4.33388095 -1.04063832 2.66617115 -1 1 C-0.67 0.67 -0.34 0.34 0 0 Z " fill="#F39D60" transform="translate(87,376)"/>
<path d="M0 0 C0.33 0.66 0.66 1.32 1 2 C-0.4375 4.625 -0.4375 4.625 -2 7 C-3.32 6.67 -4.64 6.34 -6 6 C-4.02 4.02 -2.04 2.04 0 0 Z " fill="#EFA269" transform="translate(230,275)"/>
<path d="M0 0 C1.98 0 3.96 0 6 0 C4.625 2 4.625 2 3 4 C2.34 4 1.68 4 1 4 C0.67 4.66 0.34 5.32 0 6 C0 4.02 0 2.04 0 0 Z " fill="#F19E63" transform="translate(214,249)"/>
<path d="M0 0 C0.625 1.875 0.625 1.875 1 4 C0.34 4.66 -0.32 5.32 -1 6 C-3.125 5.625 -3.125 5.625 -5 5 C-3.35 3.35 -1.7 1.7 0 0 Z " fill="#F19D63" transform="translate(287,218)"/>
<path d="M0 0 C-1.28965176 1.37562854 -2.62689293 2.70766393 -4 4 C-4.66 4 -5.32 4 -6 4 C-6 2.68 -6 1.36 -6 0 C-3.50907189 -1.24546405 -2.58919267 -0.7767578 0 0 Z " fill="#F29F57" transform="translate(430,218)"/>
<path d="M0 0 C0.33 0.66 0.66 1.32 1 2 C1.66 2 2.32 2 3 2 C3.33 3.32 3.66 4.64 4 6 C3.34 6 2.68 6 2 6 C2 6.66 2 7.32 2 8 C1.34 8 0.68 8 0 8 C0 5.36 0 2.72 0 0 Z " fill="#F19C5E" transform="translate(300,134)"/>
<path d="M0 0 C1.98 1.65 3.96 3.3 6 5 C5.34 5.66 4.68 6.32 4 7 C3.01 6.67 2.02 6.34 1 6 C0.67 4.02 0.34 2.04 0 0 Z " fill="#F09A5C" transform="translate(452,121)"/>
<path d="M0 0 C0.66 0.99 1.32 1.98 2 3 C0.35 4.32 -1.3 5.64 -3 7 C-2.625 4.0625 -2.625 4.0625 -2 1 C-1.34 0.67 -0.68 0.34 0 0 Z M-5 7 C-3 8 -3 8 -3 8 Z " fill="#F28A41" transform="translate(226,101)"/>
<path d="M0 0 C1.32 0 2.64 0 4 0 C4 0.99 4 1.98 4 3 C3.34 3 2.68 3 2 3 C2 3.66 2 4.32 2 5 C1.01 5.33 0.02 5.66 -1 6 C-1 5.34 -1 4.68 -1 4 C-0.34 4 0.32 4 1 4 C1 3.34 1 2.68 1 2 C0.34 1.67 -0.32 1.34 -1 1 C-0.67 0.67 -0.34 0.34 0 0 Z " fill="#F29A5F" transform="translate(261,380)"/>
<path d="M0 0 C1.98 0.66 3.96 1.32 6 2 C5.67 3.32 5.34 4.64 5 6 C4.34 5.67 3.68 5.34 3 5 C3 4.34 3 3.68 3 3 C2.34 3 1.68 3 1 3 C0.67 2.01 0.34 1.02 0 0 Z " fill="#F0A46D" transform="translate(34,363)"/>
<path d="M0 0 C0.99 0 1.98 0 3 0 C2.67 1.98 2.34 3.96 2 6 C1.34 6 0.68 6 0 6 C-0.38218767 4.34385343 -0.71395102 2.67542976 -1 1 C-0.67 0.67 -0.34 0.34 0 0 Z " fill="#F4873F" transform="translate(280,360)"/>
<path d="M0 0 C0.33 0.66 0.66 1.32 1 2 C1.66 2.33 2.32 2.66 3 3 C1.35 4.32 -0.3 5.64 -2 7 C-2 5.35 -2 3.7 -2 2 C-1.34 2 -0.68 2 0 2 C0 1.34 0 0.68 0 0 Z " fill="#F2AC77" transform="translate(137,327)"/>
<path d="M0 0 C1.65 0 3.3 0 5 0 C4.01 0.495 4.01 0.495 3 1 C3 1.66 3 2.32 3 3 C2.34 3 1.68 3 1 3 C1 3.66 1 4.32 1 5 C0.34 5 -0.32 5 -1 5 C-0.67 3.35 -0.34 1.7 0 0 Z " fill="#EF9452" transform="translate(406,236)"/>
<path d="M0 0 C0 3.10551666 -0.5393715 4.35261084 -2 7 C-3.32 6.67 -4.64 6.34 -6 6 C-4.02 4.02 -2.04 2.04 0 0 Z " fill="#F2A56D" transform="translate(330,175)"/>
<path d="M0 0 C0 3 0 3 -1 6 C-2.65 6.33 -4.3 6.66 -6 7 C-4.02 4.69 -2.04 2.38 0 0 Z " fill="#F2A66D" transform="translate(374,131)"/>
<path d="" fill="#FFFFFF" transform="translate(0,0)"/>
<path d="" fill="#FFFFFF" transform="translate(0,0)"/>
<path d="" fill="#FFFFFF" transform="translate(0,0)"/>
<path d="" fill="#FFFFFF" transform="translate(0,0)"/>
<path d="" fill="#FFFFFF" transform="translate(0,0)"/>
<path d="" fill="#FFFFFF" transform="translate(0,0)"/>
<path d="" fill="#FFFFFF" transform="translate(0,0)"/>
<path d="" fill="#FFFFFF" transform="translate(0,0)"/>
<path d="" fill="#FFFFFF" transform="translate(0,0)"/>
<path d="" fill="#FFFFFF" transform="translate(0,0)"/>
<path d="" fill="#FFFFFF" transform="translate(0,0)"/>
<path d="" fill="#FFFFFF" transform="translate(0,0)"/>
<path d="" fill="#FFFFFF" transform="translate(0,0)"/>
<path d="" fill="#FFFFFF" transform="translate(0,0)"/>
<path d="" fill="#FFFFFF" transform="translate(0,0)"/>
<path d="" fill="#FFFFFF" transform="translate(0,0)"/>
<path d="" fill="#FFFFFF" transform="translate(0,0)"/>
<path d="" fill="#FFFFFF" transform="translate(0,0)"/>
<path d="" fill="#FFFFFF" transform="translate(0,0)"/>
<path d="" fill="#FFFFFF" transform="translate(0,0)"/>
<path d="" fill="#FFFFFF" transform="translate(0,0)"/>
<path d="" fill="#FFFFFF" transform="translate(0,0)"/>
<path d="" fill="#FFFFFF" transform="translate(0,0)"/>
<path d="" fill="#FFFFFF" transform="translate(0,0)"/>
<path d="" fill="#FFFFFF" transform="translate(0,0)"/>
<path d="" fill="#FFFFFF" transform="translate(0,0)"/>
<path d="" fill="#FFFFFF" transform="translate(0,0)"/>
<path d="" fill="#FFFFFF" transform="translate(0,0)"/>
<path d="" fill="#FFFFFF" transform="translate(0,0)"/>
<path d="" fill="#FFFFFF" transform="translate(0,0)"/>
<path d="" fill="#FFFFFF" transform="translate(0,0)"/>
<path d="" fill="#FFFFFF" transform="translate(0,0)"/>
<path d="" fill="#FFFFFF" transform="translate(0,0)"/>
<path d="" fill="#FFFFFF" transform="translate(0,0)"/>
<path d="" fill="#FFFFFF" transform="translate(0,0)"/>
<path d="" fill="#FFFFFF" transform="translate(0,0)"/>
<path d="" fill="#FFFFFF" transform="translate(0,0)"/>
<path d="" fill="#FFFFFF" transform="translate(0,0)"/>
<path d="" fill="#FFFFFF" transform="translate(0,0)"/>
<path d="" fill="#FFFFFF" transform="translate(0,0)"/>
<path d="" fill="#FFFFFF" transform="translate(0,0)"/>
<path d="" fill="#FFFFFF" transform="translate(0,0)"/>
<path d="" fill="#FFFFFF" transform="translate(0,0)"/>
<path d="" fill="#FFFFFF" transform="translate(0,0)"/>
<path d="" fill="#FFFFFF" transform="translate(0,0)"/>
<path d="" fill="#FFFFFF" transform="translate(0,0)"/>
<path d="" fill="#FFFFFF" transform="translate(0,0)"/>
<path d="" fill="#FFFFFF" transform="translate(0,0)"/>
<path d="" fill="#FFFFFF" transform="translate(0,0)"/>
<path d="" fill="#FFFFFF" transform="translate(0,0)"/>
<path d="" fill="#FFFFFF" transform="translate(0,0)"/>
<path d="" fill="#FFFFFF" transform="translate(0,0)"/>
<path d="" fill="#FFFFFF" transform="translate(0,0)"/>
<path d="" fill="#FFFFFF" transform="translate(0,0)"/>
<path d="" fill="#FFFFFF" transform="translate(0,0)"/>
<path d="" fill="#FFFFFF" transform="translate(0,0)"/>
<path d="" fill="#FFFFFF" transform="translate(0,0)"/>
<path d="" fill="#FFFFFF" transform="translate(0,0)"/>
<path d="" fill="#FFFFFF" transform="translate(0,0)"/>
<path d="" fill="#FFFFFF" transform="translate(0,0)"/>
<path d="" fill="#FFFFFF" transform="translate(0,0)"/>
<path d="" fill="#FFFFFF" transform="translate(0,0)"/>
<path d="" fill="#FFFFFF" transform="translate(0,0)"/>
<path d="" fill="#FFFFFF" transform="translate(0,0)"/>
<path d="" fill="#FFFFFF" transform="translate(0,0)"/>
<path d="" fill="#FFFFFF" transform="translate(0,0)"/>
<path d="" fill="#FFFFFF" transform="translate(0,0)"/>
<path d="" fill="#FFFFFF" transform="translate(0,0)"/>
<path d="" fill="#FFFFFF" transform="translate(0,0)"/>
</svg>
